<svg xmlns="http://www.w3.org/2000/svg" viewBox="0 0 653.83 1925.05"><defs><style>.cls-1{fill:#f2dc9b;}.cls-1,.cls-2{stroke:#707070;stroke-miterlimit:10;}.cls-1,.cls-2,.cls-3,.cls-4{stroke-width:2px;}.cls-2{fill:#f2c43a;}.cls-3{fill:#ff8673;}.cls-3,.cls-4{stroke:#ba220b;stroke-linecap:round;stroke-linejoin:round;}.cls-4{fill:#db1e00;}.cls-5,.cls-7{font-size:23px;}.cls-5{font-family:MyriadPro-Regular, Myriad Pro;}.cls-6{letter-spacing:-0.03em;}.cls-7{font-family:MyriadPro-BoldSemiExt, Myriad Pro;font-weight:700;}.cls-8{letter-spacing:-0.05em;}.cls-9{letter-spacing:-0.01em;}.cls-10{letter-spacing:-0.01em;}.cls-11{letter-spacing:0.01em;}.cls-12{letter-spacing:0em;}.cls-13{letter-spacing:-0.01em;}.cls-14{letter-spacing:-0.01em;}.cls-15{letter-spacing:-0.01em;}.cls-16{letter-spacing:0.03em;}.cls-17{letter-spacing:0.01em;}.cls-18{letter-spacing:-0.01em;}.cls-19{letter-spacing:-0.01em;}.cls-20{letter-spacing:0.01em;}.cls-21{letter-spacing:0.02em;}.cls-22{letter-spacing:-0.04em;}.cls-23{letter-spacing:-0.02em;}.cls-24{letter-spacing:0em;}.cls-25{letter-spacing:0em;}.cls-26{letter-spacing:0em;}.cls-27{letter-spacing:0em;}.cls-28{letter-spacing:0em;}.cls-29{letter-spacing:0em;}.cls-30{letter-spacing:-0.04em;}.cls-31{letter-spacing:-0.05em;}</style></defs><g id="Layer_1" data-name="Layer 1"><path id="CL-AI" class="cls-1" d="M469,1283.56l.58-.14,1.23-2.54-.4-1.05-2.32-.47-.82.84-1,.15-3.78-1.75-2-2.39-1.81-1.86-3-2.39-1.22-.48-.83.24-1.11,1.26-.72,1-1.41.19-1.79-.21-.93-.21-.69-.61-.16-1.21.56-2.72,1-.24,2.29-.11.74-.34,1.36-2.12-2.61-3.86-1.09-2.28.26-1.92.83-1.39,1.12-.5.77-.08,2.37.53h1.17l3.35-1.18,7.59-4.17,2.05-1.76,4.61-4.12,1.49-3.12,1.12-2.84,3.16-8.68.24-4.91L477,1228l-3,2.15-4-3-3-2.7v-5.07l-3.6-1.71-2.47-.81-1.23-.16-1.61-.34-1.06-.63-3.78-4.07-.28-1.72.39-1.75,2.66-2.54,2.84-2.47,0-2.08,1.34-2.88,3.26-6.7,1,0,1.75-.44,3.89-1.36-.25-1.5h0l2.56.06.79.64,2.43.63,7.48,1.31.55-2.16,1.28-1.94,1.66-1.75,1.28-.91,1.85.75.19,2.29,3,5,.82.36,1.74.17,1.14.8,1.28,1.67.71,1.46.3,2.14,5.42-.61.54-2.19,5.45-2.72,1.31,0,2.91,1.38h0l1.93,2.69.09,1.19-.36,1-3.54,5.59-1.25,1.36-1.5,4.29.68,1.52.25,1.39-.14,6.18-1.77,1.3-.41,1.1,1,1.53,1.91.44,5.91.11h3.13l2.5-.41,3.08-.11,7.95,1.63,1.31,1.16,2,4.63-.49,1.85-.9,1-1.74.28-1.64,3.93.17,1.38.27,1.58-.22,1.64-2,2.85-1.06.3h-.92l-1.17-.22-1-.51-1.81-1.39-1.12-.78-.78.19h-1l-1.43.19-2,1.08-.79.3-.95.16-.76-.3-.78-.38-.82-.32-2.2-.49-.92.43-.7,1.2-1.06.41-4.26-.52-.87-.38-.79-.38-1-.54-1.08-.27-1.09.67-.24,1.12.57,6.21,5.1,1.11,4.94.47,2.55.35,6.11,2.09,1.3,1.3,2,4.15,6.52,8.5,1.19,4-6.51,9.45-5.35,2.47-.9-.06-.78.14-.87.22-1.55.59L513,1287.4l-1.23,5.29-.4,4.07,1.49,6.62,1.14.71,1.17.38,1.73.81.79,1.12.95,4.07-1.33,1.11-.24.13-.82.74-1.3,1.76-.81,1.33-.76,1.58-1,1.14-1,.46-1.2.27-1,.11-1.95.92,2.58,2.88,1.33.48,1.3.66.79,1.41.21,1.35.63,8.88,1.35,3.36.74,2.66.16,6.41-.24,1.76-.52,1.06-4.91,4.67-1.41.6-2.61.19-.84.89-1.44,12.3,3.23,4.58,1.17,1.36.38,1.87-.6,2.61-.57.81-5.18,2.53-2.47,4.28-3,3.32-1.36.43-1.38-.46-1,0-1.41.51-.79.35-.84.52-.57.84-.35,1.6.68.68,1.3.9-.82,5.15-.38,1.25-.51,1.09-2,3.15-.95,1.65-1.06,2.42-3.07,8.74.14,1.49.62,1.14,1.41,1.57,1.09.73,1.65.41,3.29,4,.84,6.45.33,9.1-5.19,3.33-2.5,1-2.55,1.41-.81.57-.68,1-.32,1.22.92,4.1.24,1.3.49,3.75,1.58,4.64v4.1l-.36,1.37-1,1.5-4.81,4.75-1.11,1-.72.5-1,.59-1.16.47-1.81.36-1.56-.08-.78.22-1.41.61-1.22.83-.95,1.2-2.81,4.17-3.91,9.28.08,1.28.28.58h0l-.67-.47-11.7-10.09-9.42-8.14-13.67-11.9h0l-.11-.55-1.92-1.22-2.17-.45-1.08.06-1.45.55-.83.39-.86.36-1.45-.11-2.27-3-1-3.89,1.78-2.58,3.89-4,2.08-1.45,2,1.22,4.08,3,.78-.84.25-7.14-3.5-1.14-1-1.33-.69-.7-.89-.16-2.25-.34,1-1,3.47-.84-5.75-2.19-5.31-4.81-3.58-4.14L403,1430l-1.5,0-1-.45-.41-2.77,1-1.73,4.16-2.55,4.42,1.8,2.59,2.06.8,1.39.56,1.22.72,2.22.78,5,2.44,2.52,1.2-.36-3-7.53-2.42-4.36-.22-1.14,1-.58,4.08-.17,4.87.19,1,.73,1.22,1.5,2.22.86,4.17-.06,3.39-1,7.06,6.37.14,2.83,1.42,3.59.55-2.2,1.86-1.94,1.92.16.92.34,1,.66,1.77.11,1.92-1.75.64-.8.31-1.61.11-2-.53-1.3-.31,3.16-.75,1.12-1.61,1.25-.78.16-1-.44-3.39-2.22-3.67-4.26-2.61-3.86-.37-4.47h3.95l.33,1.9,1.31,1.73.73.5.87.39,2,.56,8.35.5-1.73-1.48-2.77-.86-1.37-.06-1,.14-1.4.36-1.51-.28-1.73-1.28-7.85-9.69-1.17-3,.22-1.54.81-1.2,1.23-1.23,1.15-1.7-.76-3.89-1.95-2.09-1.82,3.74,1.54,1.12.22,1.31-1.7,8.83-.78.86-1,.65-4.72,2.06-3.21-.64-.76-.39-1-2.49-1.26-.22-1.95-.08-6.68-1.37-3.16-.73-3.4,1-1,.59-1.93.33-2.84-.45-1.09-.39-2.69-1.39-1.08-1.76,5.44-8.27,1.73-1.17.81-.14,3.44.36,1.09.39,2.18,1.84.89,3,1.4,3.74,1.62,1.93,1.39.7,1.48.2.95-.42-1.11,0-2-.64-1.09-1.14-.65-2.24,1.65-2.82,3.55-.92,2.09.89h1l1.7-.72-.61-4.72-2.74,1.42-1.45,1.51-4.67,1-.78-.19-8.41-8.83-.44-1.09,2.17-3.93,4.11-4.11.89-1.82.56-1.28.53-1.37,5-.81.84.45.39,1.62.06,2,1.87,3.83.33.33-.33-.84-1.09-3.49v-3.08l.37-1.84.48-.89,2.77-2.68,4.07-6.3-2.9-2.86-.85-.36-.85-.08-.75.39-1.12.68L421,1365l-4.13-6.28-.67-3.22-.05-1.34-2.79-1.16-10.57,1-.14,3.07,1.18-.29,1.54,0,4.29,1.29-.46,1.47-1.06.84-1,0-2.4-.29-3-1.31-9.13-4.3-4.58-2.29-2.53-5.09-.11-1.57.51-1.26,2-2.57,2.63-2.65-.18-3.63-.85,1.37-.62,1.73-3.7,4-1.43,1.18-2.61,1.68-6.15,1.73-1.55-.34-1.52-.13-2.76.87-2.48,1.18-1,.84-2.07,3.46.77.84,1.83-1.52,4.16-2.81,1,.08,1,.63,2.93,8.89-.35,1.37-2.32,1.63-2.05.89-.79.31-.32.05-.38-.05-2.31-.76-2.8-3.31-2.61-4.74-.26-3.7.48-4.94,2.37-3.49.74-.13.93.08,1.23.18,1.75-.91,4.72-4.1-.27-1.89,1.73-2,.91-.82,2.52-1.33L380,1333l.08.66.16-3.23.59-2.62,4.2-4.57,1.57-.15,3.41.13,5.11-5.51,1.25-3,2.48-7.16,1.3-4.38.56-.76,8.26-1,3.35-.81,1.28.45.72,1.86,2-1.31,4.07-.63.75.58L422,1303l2,5.9-1,5.64-.56,1.55-.87,1.63-.83.86-.64.61.85-.11,2.4-1.94.72-2.81-.08-1.13-.32-1.18.48-1,2.95,2.86.27,1.15-.11,1.55-.5,1.42-.51.84-1,1.07-1.89,1.65-2,1.16-2.5,1.15-4.45,1.32-1.17.1-1.15-.5-1.65-1.2-.9-.79-1.68-1.1,3.17,3.22.85.66.72.45,1,0,3.76-1,3-.87,1.2-.65,2-1,.91-.18,1.57,5L430,1330l1.09.47.35,0,.4-.55-1-1.55-.93-.6-1.23-.87-3.06-3.64,1.25-3,.88-.81,2.58-.24,4.93,5.51-.16,3-.38,2-.56,1.58-.63,1.28-2.72,3.36-1.2,1.26-3.11,4.72,3.09,2.34,1.43,0,1.07-.63.58-.76,2-4.36.48-1.23.85-2.88,6.5-8,1.49-4.52,4-6.16-.66-.61-3.65,5.1-1.54,2.65-.67,1.81L440.3,1327l-1,1.23-1.28.45-.13-2.39.26-1.1,1.31-2.76.58-2.1.45-2.28.11-1.78-1-3.2-.77-2.37,4.63-9.1,3.86-4.41.72-.76,1.2-1,1-.45.77-.11H453l2.1.24,1.2-.24.8-.84-5.19-1.73-1.47.16-1.62.55-1.3,1.08-1.07,2-.53.78-3,2.89-.77.18.37-4.9,2.11-12.26,4.44-4.12,3.89-2.78,3-1.26,1.17,1.1.27,1.68,1.17,1.21,1.59,1.36,3.36,2.44,2.42.84,3.12.34Zm.84-40.89-.16.22-1.9,1.46-1.79,1-2.6,2.8-.41.84-.44.71-.35.38-2.58,2.06-2.36,1.11-1.08.38-1.39.22-.62-.11-.57-.38-4.1-4.75-.3-.6-.08-.62.27-.52,3.8-1.38.68.27.41.33.62.68,1.63-.38.35-.28-1-1-2.5-1.08-1.6,1-.43.52-.41.35-.46,0-.6-.35-.4-.52-1.25-2.58-.52-1.3-.7-3.45,1.52-2.28.32-.4,1.17-.25.43.08,3.77-.7.49-2.5.17-2.12-.09-.78.14-.66.76-2.11.41-.54.49-.22,4.91-1.63,3.44-.84.44.13,4.59,3.75,3.06,1.08.73.6,1.69,2.88.27.62-.11.63-3,4.37-.36.38-.43.3-.73.16-2.45-.25-.43-.32-.52-.6-2-.76.05.73.35.57,2.34,1.61,1.17.38,1.54.32.33.84-.54,1.17-.6.92-.44.38Zm-90,222.82-.47.33-.92.27-1.73-4.18-.57-2.82-.85-5.51.11-.93.84-2.44-3.9-2.33-2.47,1.27-.57.19-.93.22h-.78l-.52-.13-.73-.49-.27-.52-.09-.68.19-.68.76-.65.71-.49,1.09-.46,1.38-.11,1-.13.59-.19.76-.41.63-.57.65-1,.46-.92-.51-.16-1.8,1.08-5.1.63-.43-.68L365,1430.45l.24-.65,1.6-2,1.11-.87,5.62-1.57.68.13.46.54,2.36,7.44.28,1,.27,3.4,1.38,4.45.92,2.55,1.12,1.27,1.41,2.5,2,5.73.43,5-.27,1.08-.33.52-4.39,4.53Zm22.31-.73-4.73-4.34h-.68l-.65,1.27-.59.19-.74,0-4.5-1-2.5-1.44-.54-.46-.22-.57-.62-4.26.16-1.09.35-.68.33-.49,2.77-3.09.62-.35,2.52-.3.47.11.32.78.82,1.33.16.79.32.65,1.71,1.44,1.85-2.28.11-.62-.49-.71-.38-.24-1.11-.25-1.33-2.52-.3-.68-1.57-2.17v-.73l1.19-.79,1.65-8.58.36-.89.3-.52.48-.49.47.25.73,1,.27.51,0,.95v1.09l.4,2.25L400,1442l3.53,6.3-1.68,2.74v3.37L403,1457l.25,1,1.9,2.57.54.14-1.05-.46v-.57l1.18-.57,0-.68.49-.22.41.19.46.36.35.43.08.84-.3,1.63-.24,1-.33.49-.43.38-2,1.25-.71.27-.81.05-.62-.4Zm-15.56-14.42-.54,0-.51-.27-5.49-12.19-2.41-7.35.13-1.69,1.31-.13,2.49.54,4.51,1.11,1.06.57,3.23,2.64,4.34,1.11.43.54.08,1-.1,1.19-1.31,8.36-.32.49-.57.22-1.09-.05-2,1.35-.92.68-1.08.9-1.23,1Zm50-177.92-2.36-.76L432.8,1270l-1.63-.06-2.17.57-.68,0-1.49-.11-.52-.24-.43-.33-.41-.7-3.47-4-1.2.65-2.6.6-.63-.14-.38-.38-.24-1.35-.22-1.74,0-.54.27-1.11.57-.76,1.33-1.33.52-.44.73-.16.89.05.38.22.71.24,1.76-.16,3-.54.84-.25,1.44-.92.46-.35.59-.14.85.14.7.24.41.22,2.36,1.82.38.38.35.41.3.43,1.55,2.52.6,1.58.05.65,0,.7-.11,1.5-1.08,5.32ZM414,1423.72l-1.43-.76-4.75-2-.74-.65,0-.65,3.12-3.48.4-.4.71-.44,3.66-2,.76-.19,8.69,2.9,4.64,1.9,1,.14.57-.19,1.17-1,.49-.3.4,0,.49.33.63.76.16.59-.22.82-.73,2.17-.71.46-1.27.46-.55.06-1.43.05-4.16,0-.76-.1-.89-.36-.54-.3-.85-.16-.51.06-6.24,1.79-1.12.4Zm2.12-177.38-.71-.11-1.05-.38-.71-.43-.41-.33-.57-.57-.84-1.11-1.52-3.31,0-.68.1-2.31.47-.46,5.26-1.38.6-.11,3.39,0,6.16.36,1.3.43.52.25.92.59.38.36.52.59,1,1.58.22.81-5.48,1.49-6.54,2.91-.95.51-2,1.28Zm-30.72,70.86-.46-.49-.27-.65-.43-1.74.21-.6.44-.32,4.56-1.28.54.25-.3-1.2-1-.24-1.06.41-1.41.1-.63-.16-.35-.79-1.41-5,.21-.55.63-.51.84-.25,3.53,1.42.51.27.66.51,2.38-1.35,3.29-3,2-1,.89-.14.41.92v.9l-.16.87-1.8,7.68-.24.54-.3.49-1,1.3-4.12,4-.63.33-2.74.21-.92-.1-1.39-.47-.49-.4Zm-21.09,146.09,1-1.38,1.19.24,1.08-.32.6-.14,1-.54.44-.35.73-.9.22-.79-.36-.35-.7.68-.65.57-.52.27-.81.14H367l-2.63-.3-1.82-.92-.76-1.74.74-6.22,1.14-2.06.76-.19,8.22-.79,1.87.38.22.85.76,8.22-.19.62-1.79,1.63-.87.73-2.47,1.93-1.17.81-.51.28-.6.19-1.17.13-1.38-.11-.76-.3-.3-.27Zm44.27-163.71-.6-.21-.44-.74-.4-1-.08-.73.32-.65.9-1-.92-1v-2.12l1.24-2.33-1.24-1.74v-.87l.94-.76.19-1,.17-.62.4-1.2.52-1.06.62-1,.87-.33,3.56,1.71.65.52.41.51.78,1.61.38,1.11.9,2.85.46,2.25-.73,2-.33.46-6,4.67-.46.29-2.14.38Zm-15.25,129.13-.54,0-2.09-.65L388.3,1427l-.52-.3-.3-.68.57-1.14-.79-.68-1-.24-1,.08-.76.46-.87,1.06-.65,1-.57.19-1,.19-1.33.14-.81-.16-.54-.52,2.22-3.23,1.09-.89.46-.33,2.63-.79,1.22-.3.76,0,3.48-2.39,2.66-3.77,2.25-1.14.57.41.3,2,.05.68,0,2.14-.08,8.09-2,1.55-.38.22-.68.1Zm46.38-130.13-.35,0-.68-.41-4-4.53-.19-5.84v-.87l.11-.89.22-.6.4-.76,2.09-3.09.41-.33.79-.14.68.06,2.82.92.4.63.11,1.92-1.27,10.51-.9,2.87-.4.57Zm-24.13-39.95-.38,0-2.82-.76-.19-.49.54-1.39,5.83-5.64.57-.41.71-.22.7,0,7,1.82.49.46,1.46,1.87.27.66-.43.48-1.38.84-.82.28-2.39.67-.65.06-3.06,0-2-.16-.7.22-.46.24-2.28,1.49ZM436.06,1243l-.52,0-2.44-3.42-.14-5.15.16-.84.57-.52,3.75-.92.65.05.65.33.63.59,1.22,3.13,1.46,4.5-.08.57-.43.3-4.21,1.3-1.27.11Zm-9.56-43.23-1-1.2-3.85-1.16-1.79-.71-.3-.43.78-2.91.49-.51.63-.3,2.33.3.63.16,5.1-.76,2.14-1.9,2.72,3.07.78,2.41.22,1.2-3.47.29-.52-.48-.65-.28-.19-.54.57-.46.38-.49-.57-.41-1-.13-2.25.57-.22,1.17.46.54.13.6.95.54-1.22,1.52-.65.24-.57.06Zm-.3,76.62-.51-.09-4.62-1.76-.4-.52-.87-3.47.87-1.14,2.36-1,.6-.06.54.25.35.41.49,1.49.35.41.46.29.63.17.68.11,1.43,0,.68,0,1.39-.27,1.08-.16,1,.16.52.27.38.36.54,1,.36,1.08.08,1-.41.84-.38.17-2.82,0-3.34.11-1.47.36Zm-20.27,166.85-.35-.24-2.39-5.16-.11-.65-.05-1,0-1.44.05-2.17,1.33-2H405l.76.65,1.23,1.2,4.18,4.23.92,1.87-1.58,2.31-.43.38-4.18,2ZM435,1323.55l-1.25-1.17-.35-.41-4.65-6.21,0-.92.52-1.5.43-.51.54-.19,1.82-.08.71.08,3.45,1.52,1.65,1.25.54.62.22,1-.27,1-2.09,4.16-.54,1-.46.3-.3.08Zm-24.27-91-4.28-1-.68-.63-.22-.51-.49-1.82.25-.79.84-.92.54-.38,7.38-2.25,1.93.65,1.33,2.2.43.84,0,.57-.93.32-3.42.87-2.6.57-.52.22.46,2.09Zm16,65h-.36l-2-.38-.49-.46-1.19-3.07-.74-2,0-1.14,1.92-2.41,1.28-.79.65,0,1.84,1,1.8,1.82.78,1.63,0,.87-.33,1.68-.76,2.09-2.38,1.25ZM364,1470.86l-.35,0-.46-.22-.6-.68-.19-.84.27-3.55.93-.11,1.73.78,1.74.44.76.11.62-.14.44-.35,2.3-2.12,3-2.66,1.82,1.28.54,1.57.16.63.08.84-.76,1.14-.65.54-6.68,2.47-4.72.92Zm56.89-182.27-.19-.35.05-.62.19-1.47.19-.84.35-.44.57-.43,0-1.17.33-.73.51-.71.38-.7.22-.6.46-.49.57-.08.54.35.52.28.71.08.86,0,.44.16.43.33.35.41,1.06.51.52.44.51.27.57-.14,1-.76.66-.24.59.46.17.84-.28,1.11-.4,1-.27.74-.68,1.14-.22,1.08-.52.14-.78-.55-.38,0-.6-.19-.68-1-.79-.21-.75-.06-1.25-.54-1.28-.3-.41.14-.62.51-.87.25-.6.62-.4,1.06-.36.62-.4.19Zm-1.22,89-.49-.33-1.71-2.2-.06-.76.06-.76,1.25-3.66.35-.63.41-.35.43-.13,5,.27,2.2,1.71L424,1375.2l-.87.92-.43.35-.49.27-1.93.68Zm12.59-123-1.47-1.44-1.22-1.41-.41-.71-.21-.49-.27-4,.24-.85.6-.7.57-.35.57-.14.84,0,.79.35.38.54,2.44,6.27.19,1.66-.22.73-.27.51-.6.52-.76.14-.49-.11-.51-.25ZM415.7,1451.7l-.54-.81-.41-.38L414,1450l-2.71-1.82-.81-.43-2-.76-.54-.46-.57-.82-.16-.59,5-3.8.65-.33.52,0,.84.21.54.66,0,1-.54,1.65,0,.71.47.89,1.11,1.71.73.84.82.63.54.57-.19.78-.44.38-1.08.68-.49.11ZM399.15,1297l-.11-.63,0-1,.14-.68.7-2.9.25-.54.27-.52.51-.65.41-.33.49-.27,2.17-1,.92,0,.44.35.16.57-.52,5.24-1.16,2.9-.52.47-.46.29-.76.14-.52-.05-2-.47-.38-.38,0-.51Zm30.61,14.22-.44-.16-.35-.57-.6-1.77-.05-.84.35-.87.25-.51,1.06-1.69.59-.73,5.65-3.36.54.11.49.84.19.54.19.89.16,2.83-.59-.41-.36-.41-.62-.13-1.63.16-.76.33-.71,2.6-1.24,2.42-2.12.73Zm-49.21,104.16.17-1-.11-.65-.35-.43-1.66-.62-.71-.14-.78-.08-.68-.19-.46-.68,1.46-1.57,4.81-2.66.68.32,1.16,1.58.49,1,.71,2.28-.19.87-.57,1-.36.43-.51.49-1.11.63-2.66.51.67-1.14Zm44.79-108.07-1.8-4.26-.92-1.63-.46-1.38.43-1,.33-.43,1.41-1.2.54-.13,2.66,1,.11,1.87-.13,4.07-.19.81-.55,1.42-1.19.84-.24,0Zm-14-58-.71-.1-2.39-1.52-2.38-3.78-.06-.78.41-.66.43-.29,2.31-.76.76.35,4.4,6.3,0,.57-2.44.62Zm-.11,30.16-3.64-2.17-.4-.33-.57-.57-.71-1-.16-.57.27-.76.51-.52.79-.3.63-.08.67,0h1.74l.76.25.52.46.65.84.46.84,1.47,3.66-.41.44-.65.27-.76.16-1-.3-.19-.32Zm13.24-46.52-.95-.22-1.22-.35-.76-.41-.35-.38-.19-.7.19-3.83,4,.57,1,.19.79.35.4.33.41.51.25.65.21.85.08,1-.16.82-.54.38-3.18.27Zm34-28.42-1.14-.24-3-1.49-.46-.74-.22-1,.11-.87.65-1.41.49-.65,2.55-1.38.76-.14.49.11.41.33.3.4.1.93-.57,5.67-.48.51ZM426,1220.77l-.68,0-.46-.22-1.49-1.3-.65-.9-1.25-4.64,2.36-2.61.57.14,2.41,2.9,1.36,1.74-2.22.82-.14.84,0,.67.16,2.61Zm13.54-10.45-2.71-4.88-1.11-2.64,0-.86.22-.85.51-1,.33-.41.87,0,2.76,3.77.84,3.74-.21,1.42-1.09,1.35-.38.3Zm-30,244.72-.79-1.93-1.93-3.53-.19-.57-.05-.62.68-.73.62,0,1,.46,2.87,1.65,1.93,1.33.68.54.32.66-.05.65-.52.49-.75.4-2.09,1.06-1,.41-.49-.08-.27-.22Zm3.8-181.86-2-1.63-.6-.54-.35-.41-.3-.6.06-.84.54-2.88.49-1,1-.08.52.27,3.12,2.93-1.17,4.81-.43.32-.49-.1-.38-.3Zm-5.05-32.51-1.47-.08-4.8,0-1.76-.89,0-.71.22-.54,1.55-1.63.57-.35.76-.14.54,0,1,.19,2.9.65.63.33.29,2.6Zm0,136.1-.92-2v-2l.3-.49L410,1371l.57-.19,1.31-.17,1.16.11.84.22.33.43-.11.84-.35,1.09-.33.49-4.26,3.53-.62.38-.33-.63.08-.35Zm-25.07-123.84-.38,0-.57-.38-1.28-3.77-.16-.54-.08-.6.11-.7.4-.74.84-1.16.9-.25.57.38,2.09,3.5v2.5l-1.79,1.68-.65.11Zm44.34-26.65-4-2.14-.57-.63-.79-3,.68-.27,6.11,1.93.19,4.42-.25.52-.76-.19-.59-.6Zm-13.85,7.92-.32-.08-.43-.38-.57-.73-.3-.6,0-.65.24-.51L415,1230l3.85-.33,2.06,2.91-1.95.54-5.26,1.11Zm10,218.86-.33,0-.81-.51-3.28-2.26-2.34-2.39-.35-.92.24-.81.79-.3.71,0,.4,0,.84.22,3.75,2.6.46.35.38.6.16.63-.62,2.82Zm14.57-139.61-.38,0-3.74-1.05-.95-.74-.3-.7.05-.76,1.85-3.64.54-.41.44-.13,1.71,1.65,1.11,5.49-.33.32Zm-.13-64.64-1.36-.84-.73-.6-.3-2.2.27-.76,4.34-1.11h.55l.51.43.11.6-.6,4-.68.73-.73.16-1-.16-.41-.27Zm-6.73-35.18-3-.57-1.33-.4-.54-.41-.36-.41-.24-.46-.16-.68,1.43-1.49,1-.82.84-.16.41.16,1.65,1.17,1.71,2.17-.27,1-.24.51-.44.22-.51.16Zm-6.79,35.58-1-.08-4-1.65-.55-.63.71-.49L422,1246l1.17-.25.54-.19.95-.51.68-.46.7-.19,1.55.38.35.65-.24,2.14-.44.52-.46.27-1.38.62-.79.19ZM387.75,1412.4l-.33,0-1.52-1.28-.32-.46-.93-3.34.41-.38.9,0,3.14.68.38.22.71.87.87,1.46.21.68-.43.79-1.52.6-1.57.21Zm8.14-172.49-.38-.22-.79-1.25-.16-.54-.19-1.22,0-1,.08-2.11.27-.71.36-.41h.57l2.06,1.25.35.57.14.76-.06.73-.54,3.29-.89.6-.47.24-.32,0Zm33.41,40.7-2.74-.81-1-.35-.22-.52.22-.73.54-.41,1.73-.62.79-.11,3.94.08.49.27.1.79-.08,1-2.71,1.36-.44.08-.59,0Zm2.49-59.51-3.82-.74-.46-.54-.19-1.85,6-.57.62.19.3,2-.08.81-.54.38-.57.14-.9.16-.33,0Zm31.43-32.35,1.68-1.17,1.93-.38,1.47,1.55,1,.38.66,0h0l-.57.54-2.45.22-3.69-1.19Z" transform="translate(-360.17 2.07)"/><path id="CL-MA" class="cls-1" d="M457.58,1667.85l-.87-.08-1.31-.38-1.33-3.34-.68-6.86-.28-6.7-.76-5.27-.6-1.47-1.77-2,.38,1.45,1.2,3.23.44,3.1,2,20.19-.35,2.14-1.14.64-1.26-.7-7.59-6.33-.77-1-.57-1.81.17-2.35-1.2-4-1.66-4.49,1.93-1.17.41,1.44,3.13,6.65,2.94,4.73,1.25-.43-3-6.49-4.28-9.53,1.47-.7,1.26-.85,1.74-2.25-5.61,1.58-3.27,4.25-2.39-4.6-1.12-4.3-2.48-.61-2-.7-.9-11.43.17-1.44.76-2,3.54,1.09,4,4.49,1.07,2.43,2,4.89.52,2.7.52-.35.24-1.58-3.75-11.14-3.27-12,1.55-1,1.47,2.27.41,1.71-.79-6.66-.87-1-1,.61-3.75,4.43-1,.73-.79.21-7.1-2-1.75-1.36-.92-6.81-2.34-1.66-.9-.7-.44-6.43.93-1.53L419,1594l1.6-.62,8.91,0,.87.59,1.33,2.17,2.78-7.56,0-6.12,1.14-1.6,3.32-1h1.45l2.22,2.58.52,1.9,1.14.81,1.16-2.69-2.36-2.38-1.84-.36-1.58-.49-2.57-3-.11-1.36.73-1.41.92-.3,1.3-.3,1-.65.68-.82,1.22-5.1-7.17,7.09-.62,1.3-1,3.85-1.09,5.16.33,1.49.24,1.74-.41,1.11-4.07,4-.73.41-3.72-.43-2.93-3.45-1.57-4-2.77-6.22-2.17-7.46,2.9-1,3.53,1.36,1,.71.86.84.93.76,1.14.57,5,.81-1.93-1.35-1.95-.66-3.29-2.44-1.68-2.06-6.62-.6-7-5-8.31-8.38-.16-1.8.9-1.57,1.35-1.57,1.9-1.36,3.64-1.22,2.28.78,3.23-.38,2.14,2.77.79,1.93,2.66,3.07,9.28,4.23,2.47.52.71,0,.54-.49-10.23-4.85-.84,0-.9-.41-1.19-1.3-6.3-11.32.38-2.47.9-1.38,2.66.35,1.82.57,3.74,4.16,9,3.74.13-1.79-.51-1.68-4.18-1.85-3.48-1.49-7.65-4-1.06-1.57-.92-4,4-2.28,2-.74,1.87-.32,1.19.46,1.58-.38.38-1.85-4.91.71-3.42.92-.76-.22-.87-2.46-.25-3,.25-1.44,3-3.06,5.08-1.74.92-.27,5.4,1.3.68,1.28.84,3.39,1,1.76,1.41.71,1.14.35,2.53,2.61,1,3.53.43-1.9-.78-2.69-.95-2.25-.74-.71-2.93-.27-1-4.07.13-3.39-1.57-1.14-2.93.38-4-1.33-.62-.82-.44-4.1,1.49-8,.57-.89,1.2,0,1.41,1.28.46,1.22.82,1.3,1.95,1.17,1.19.38,1.5-.41-1.74-1-1.22-.3-.71-.54-2.17-3.58-1.17-9.5.47-1.14,1.22-1.66.68-.73.92-.46,1.22-.06,1.11.76.76.85,1.33.16-.11-1.3-2.39-1.28-5.8.65-.3,2.42.38,5.32-2.58,4.8-1.6,5-.38,3.28-1.33,8.06-.84,1.25-.9.16-1-.68-4.21-5.67-1.71-5.05,2.72-10.63v-11.65l-2.45-2-.81-1.87-2.17-3v-1.57l.41-1.28,2.38-3.88,1.59,1.06,1.18.43.93-.22,1.54-1.16,1.2-.41,3.21.3,2.57,1h0l13.48,11.62,9.28,7.95,11.53,9.85.66.46h0l3.15.87-1.92,2.17-11.17.33-1.62.11-2.93,7.79-1.64,5.78.52,1.08,2.08,2.74,2.68,11-.76,1.09-1.4,1.3-1.07,1.3-1,5.27,1.53,1.68,1,.89.77,1.09-.17,1.82-1.07,1.46-.9,1.88-.44,2,.55,1.71,3.37,2.58,3.39,2.71.66.82.58,1.06,1.56,3.69.44,1.62.65,8.74.8,5.92L457,1587l.71,1.17.83.68,1.09.16,1-.24,1.23-.44,1.34-.73,1.34-1.19,2.28-3.07.77-.71,1.28-.78,4.17-2h1.12l1.09,1,.69.93.77.67,1.26.49,1.26-.16.76-.57.88-1.71.85-1.06,1-.49,1-.16,4.71.68,3,2.33-.25,1.5-1.48,3.28.16,1.49,1.24,1.49.87,1.23,1,1.9.43,1.38-.9,9.53-.63,1.22-2,.24-2.38,4.53.74,3.12.93,1.31,1,.73,1.39.76,1.59,2.06-.52,1.69-1.15,1.19-.74,1.66-.05,3,.14,2.45-1.48,5.29-.85.87-1.21.89,4.33,11.32,1.2.68,1.95.32,1,.49.79.52,1,.73,1.86,1.52,5,5.62.68,1.65v1.79l1.82,4.75,8.33,2.72L533,1664H563.8l12.51,2.72h4.32l2.14-1.44,6.84,3.12,11.75,3.75,6.71,2.71h2.09l7.76,2,1.6.71,2.14,1.54,4.13,3.1,3.91.65,3,.46,2.82.51,5.4,1.47-.22,3.09-1.41-2.76-1.19-.55-6.6-1.11-4.61-.24-.79.08-4.77-.93-1.55-.62-.79-.54-1.57-1.44-1-.79-1.88-1.17-1.35-.62-1.39-.13-.86,0-2.23.22-6.81,3.06-1,.76-.49,1.06-.11,1.79-.19,4.37-2.57,4.32-.95,1.24-2,2-.68,1-.9.62-4.09-.62-1.12-1.11-4,.89-8.76,3.88-1.14.6-12.57,7.57-1.22.11-6,.76-4.92.9-1.22,9.31.52,1.81-.13.85,0,5.47-3,8.55-.73,1.27-.85.95-.62,1.35-.35,1.88L541.44,1753l0,2,.14,1.53.43,2.09.6,1.61.52,2.07.29,1.8.19,2.35-.19,2-1.35,8.1-.82,1.64-1.9,2.33-7.26,3.31-1.93.71-6.49-3.23-1.17-.34-1.66-.21-1.76-.14h-.87l-1.55-.18-2.5-.74-6-4.31-3.15-.82-4.46-1.33-2.49-1.35-6.69-6.77-2.31-3.36-1.85-2.94-.92-1.66-1.25-3.21,1.14-5.34,5.38-4.66,6.63.8,1.11,2.93.25,1.43-.16,2.3-.52,1.51-2.47,1.64-2.69,1.4,1.49.61,3.24-.95,1.33-.85,2.25-1.64.25-1.32-.22-2.06-.35-2.57-.11-1.35.35-2,.92-1.19h4.79l1.14,1.35,1.95,11.64-.46,1.54-.76.76-1.22,1-3.64,2-1.06.45-1.36,1v1.94l1.24.33,1.9-1.2,4.59-1.76,1.19-.79,1.63-3.25-.22-4.27-.51-3.12.24-4,1.12-4.59,10.09-5.29,1.17.11,1,0,1.19-.32.82-.49.78-.6.74-.81,7.73-13.52.41-1.6-1.87-3.39-3.4-1-3.69-.24-9.82,5.37-8.2,5.24-3.17,2.66-.63,1.74-4,6.27-2.17.62-1.11-.08-1.42-.95-.81-1.06-.79-1.49-.7-1.25-.76-.79-3.18-1.11-8.25,2.12-1.08,1.27,3.12-1.3h3.85l5.94,6,.82,1.69-.46,1.19-5.4,1.66-1.25-.28-1.49-1.33-2.8-.86-1.87,1,1,1.69,1.42.62.81,0,1.19.62-3.8,7.46-1.22.52-2-.65-1.14-1.6-.67-.79.32,2.44,3.23,3.8,1.06-1,1.11-.24,3.94,6,.57,1.6-.68,1.2-3.72.6-.41,0-1.05-1.27-7.55-6.24-5.16-2.91-2.95-2.09-.87-1.22-4.07-3.31-.79-.35-1.17-.06-1-.38-2.64-2.49-3.34-4.75,8.61.54,3-.65,2.06.32,3.72,3.07,2.74,4.61.87.9,1.68-.22.63-3.36-2.18-2-1.6-1.76,1.33-2.66,1.74.19h1.79l-1.8-1.28-2.56-.51-1.05.32-.95,1.12-1,.32-3.24-2.85,1-1.21.44-.64.82-2.86-1.53-2.13-1.13-3.69-.32-4.95,1.58-2.05,7.36-4.92,5.12,3.18,4.38,1.47,1.69-.48,4.45-3.88,4.43-5.29.53-1.22,6.15-.91,4.22,3.07,1.79.43,2.08.13,2.75-.11,1.45-.18,1.08-.16,1.24-.43,5.35-2.7-1.61-3.87-1-.78-1.47,0-.93.32-1.16,0-4.85-.8-5.59-1.28-8-1-5.46.27-1.32.29-1.21,1.58-.95,2.35-1.93,4.41-4.72-4.06,1.8-2.67,1-.78,1.16.08,1.68-.91-.79-1.07-4,1.34-.79.7-3.17.4-6,0-4.09,5.16.66.77,2.69-1.79,4.83,1.87.1,1.44L474,1710.9l-1.69,1.73-2.47,2.22-2.27.48-.95.3-1.11,1.46-.92,1.63,1.21,3.91,1,4.22-.13,2.72L465.6,1732l-4,1.45-.24.21-1.24.7-2.95.29-4.33-1.84-4.91-4.73,5.17-4L456,1721l-4.59-.67-7.46-4.84,1.9-1.55,3.48.27.92,1.07,5.88-.72-.79-2-.13-2.38,5.83-13.18,1.58-.9,3.22.61,2,.62,1.13.29-1-1.44-3.56-.81-1.16-.16-1.11.11-2.85.59-1,1,.55,3.31-.31,1.21-3.59,5.66-1.42,0-.9-.61-.29-1.26-.1-2.72-1-.62-.93.41-4.22,3.71-2.11,2.22-1.37,2.35L442,1712l-3.09-1.49.4-7.67,2-2.54,1.5-.45,1,.5.47-1.06-1.79-.59-.66-1.2-1.9-5.67,0-1.87.61-1.15,1.11.3,1.11.18,1-3.28-.68-5.8-2.27-4.06-3-4.47-.6-1.65.29-2,1.05-.88,1,1.09.58,2.27,4.48,7.11,1.14.16,1.76-1.42,4.49,2.94.87.24L455,1679l.84-.72.95-2.7,1.9-3,2.53-1.36,2.74-1.39,1.43.21.1,4.39-.13,2.86,2.82,3.84,1.69.88,1.29-1.49,2.19-8.66-.42-2.3-1.21,1.29-1.19,3.28.05,1.55-1.08,2.59-2.5-1.84,0-8.58,3.19-7.93,2.31-1.18,4.17,3-.17,3.5,1.53,2.62,1.52.77.71.7,1.88,3.6.76,1.85-1.6,7.5L480,1683.8l-5.12,2-7.24,4.49,1.14.43,3.05-1.1,7.19-2.8,2.1-1.34,3.48-3.55.9-7-.57-1.33-2.62-3.16-3.84-4.94-.68-5.29,1.26-1.15,4.46.7,1-.48.84-.86.55-1-.46-8-1.47-3.71-5.89-6.86-2.09-1.95-1-.54-1.69-.29-1.82-.06-3.35-1.46-5.34-3.56-.84-1.44-1.56-1.23-1.66.3-3.21.9-1.06,1.26.52,1.07,1.52.64.95-.3,1.53-1.09,3.4,1,3.38,1.79,4.9,4.25,5.5,5.48.87.42,4.47,1.23.81,1.07-.62,3.05-2.34,2.64-3.63.32-2.72-1.84-.95-2-6.37-2.84L458,1640l-2.48-1.57-1.63.21,2.2,5.88,1.28.77,1.5.29,1.06,0,1.37-.67,1.38.85,1,1.1L465,1649l-2.4,4-.9.58-1.52.32-2.64.86,4.65-.67,2.43-1.95,1.41-.85,1.31.91.41,1.62-1.28,1.34-2.67,1.1-2.37,1.17-2,1.26-.62,1.57-1.23,7.59ZM635.3,1844.58V1851l-2.26.24-.28.08-.65,0-.46-.25-.81-.81-1.39-1.6-.78-.6-5.19-2.52,1.55,2.71.41.52.51.62.95.68,1.63.68.41,1.33-.82,1.11-1.25.6-6.1,1.22-4.1.46-.92,0-.79-.16L600.71,1850l-2.66-1.06-4-2.2-.38-1.52.22-.73,1.14-1.25.19-.73-.17-4.15-.4,0-3,2-.27,4-.71,1.47-13.46,2.95-4.75.33-1.28,0-1.3-.35-1-.65-.54-1.3-.13-2.2.62-1,.81-1,2-3.52.16-.9-.46-.38-3.34,4.29-1,2.25-.38,1.09,0,.67-1.16.44-1.47-.41-7.57-.49-4.21,2.17-.54.14-.46,0-1.49-.38-.82-.57-.54-.89,1.85-2.36.65-.52.59-.22,1.55-.32,1.17-.44,2.33-1.38,3.31-2.17.71-.65,2.25-3.29.22-.78-.33-.36-.78-.08-2.34.11-.51.16-2.58,2.85.59.6,1,.62-.27.57-1.79,1.14-3.48,1.22-2.76.74-3.75-.17-.87-2.09.55-1.7h1.71l3,.37.4-.46-.43-.46-.57-.13-.41,0-2.41.74-2.5,2-3,3.8-1,.27-.38-.49,0-.81.35-.81.36-.57.57-.79.35-.6.3-.68,1-4.31-.08-1.41-1.69-.38-1,.78.14,1-.22.74-.57.81-4.1,2.36-.62.3-3.56-1.57-.76-.41-.38-.54,0-.74.49-.43.57-.08.54-2.06-.16-2.47-2.75-3.7-.73.06-1.84,2.09-2.91,7.6-.27,1.46-.41-.05-.59-.35-6.14-4.64-.46-.6-1.08-.14-1.14.41-1.63,1.47-.82,1.13-.73.3-3.69.25-.41-.06-.92-.27-.6-.65-.4-1.25-.9-3.88-.3-3.91.3-3.09.46-.46.57-.08,2.06.78,1.82,2,.55,1.41.13.73.52.84.73.44,2.88,1.14,2.41.84.46,0,3.61-1.88-4.48-5.21-.86-.49-.52.11-1.33.68-.62,0L510,1822.7l-.48-.68-.3-2.06,2.2-1.28,1-.1.87.08.41.08.7.73.41,1.71,2.66,3.88.65.52.62.3,1.44.35,2.77-1.11.19-.65-.68-.68-2.28-.33-.62-.32-.44-.47-.62-1.16-.41-1.47.63-.81.51-.06,5.43,2.39,2.74-1.27-1.82-1.09.74-1,1.46-1.06.6,0,6.43,3.91,8.44,2.57,1.28-3.55,0-.9,0-.81-.11-.76-.35-1.66.4-.76,1.63-1,1.52-.49,1.69-.08,1.32.08,4.18.44.41.08,1.49.57.22.57-2.25,3.47-1.55,3.72-.81,3.94-.79,5.29,1.33-1.58,2.93,2.58-1.76-3.31-.3-.6-.38-1.49.16-1.11,1.25-3.94.3-.62.81-1.25.52-.62,1.49-1.47.65,0,.49,1.2.54.92,4,3.5,1.33.6.49.33.43.4,2,1.71.4.52.36.54.43.92.52.85.81.35.79.08,4.28-1.87-3.58-2.72-.92-.68-1.63-.89-.95-.44-1.93-1-.7-.4-.84-.57-1.52-1.09-.46-.68-1.93-3.42.35-1.27-.13-1-.57-1-.49-.65-.63-.74-1-.65-2.28-.76-.76-.13-1.68-.19-3.31.19-1.36-.06-.7-.19-.54-.38-.74-.73-.54-.92-1.49-6.16,1.46-.46,1,.84,2.91,2.14,5.1,2.66,11.7,6.62,7.24,6.76.68.33,2.66-3,.14-.68-.47-.46-2.76-.68-.68-.25-.9-.92-.35-.76.08-.73,2.5-2.44,1.44-1.28.65-.49.54-.11.41.06,1.87,1.33,1.33,1.84,3.93,8.63,2.83,7.3,1,1.2.7-.36.55-4.8-2.56-6.24-1.46-3.37-.65-.49-.84-.86.62-1.66.35-.32.87,0,1.55.43,4.34,2.28.9.92,1,1.36,9.5,2.36,5.13,3.07.54.38.35.54.19.95-.1.74-2.88,3.55-.41.3-1.44.84-.54.62-1.55,3.29-.46,1.14,1.22,3.58.41.44.41-2.31,1.38-3.48,1-2.22.43-.95.49-.65,1.19-.9.82-.24.46.19.35.54.52,1.28.62,1.65.19-.19.92-1.6-.57-2.28-.4-1-.06-1.36.27-1,.55-1.06.43-1,.89,0,.41.06,1.13.48,1.44,1.28.52-.08.51-.57,0-2.42-.56-.67-.55-.38-2.52-1.57-7.15-4.2-5.28-2.5-1-.35-3.2-1.38-.54-.38-.52-.62-.78-1.28-4.23-1.71-1.09-.29-.76-.14-.86-.08-.76-.14-1-.35-3.42-1.35-6.31-4.45-.68-.73-.32-.78-3-10.06-1.08-5.61-.25-1.52-.11-1.21.14-1.33.76-1.41.68-.65,8.78-5.67.51-.13,1.19.16.84.06.46,0,.79-.08,2-.68,15.45-8.64.52-.38.51-1,.19-1.27v-.68l-.62-6.61-.36-.87-.73-.7-7.37-.63-1.24.06-11.14,1.7-.38.11-1.6.6-1.38.87-1.57,1.3-.49.62-.87,1.49-.73.46-5,2.28-.57.11-.4-.06-.63-.3-.78-.57-7.05-5.9-.24-.65-1.09-5-.24-3.2,0-.86,1.14-11.55.21-.89.25-.65.54-.76,2.93-3.52.48.46-.57,1.51-.08,1,.76,3.11.65.16,4.45-1.43.62-.25.81-.51.46-.43.41-.46.35-.52.27-.62,1-3.66.11-.79-.08-1-.38-.67-4-.71-1.82-2.9,0-.78-.35-.93-.71-.78-.92-.43-1.16-.19h.34l-.76.64-1.06.22-.54-.14-.22-.57.89-1.3,1.09-.65,7.08-1.3.74-.11,1,.19,1,.57.41.43.52.79.57,1.38,1.3,2,.6.73.95.82,1,.38.78.1.79-.08.92-.38,6.71-4,.81-.73.71-1,3.5-6,.35-1.2,0-.84-.21-5.1.81-1,.84-.68,4.37-2.33,1.36-.44,2.17,2.83.35.51.25.63.16.7.08.79.33.76,4.28,5.89.44.43,1.17,1,1,.71,1.06.27.62,0,1.06-.46,4.37-2.17,5-3.31.49-.38.54-.79,4.5,1.82,3,2.31-1.24.57,2.71,9.17-2.71,30.83,2.71,4-2.71,11.1,2.71,21.47-2.71,10.31v22.15l2.71,1.36-2.71,12.64,2.71,16.2Zm-238.13-298-.47-.11-3-1.68-.79-1,1.12-2.15,1.23-1.15,2.52-1.67,1-.45.87.59,1.37,1-1.9-2.58-1.06-.22-1.15.5-3.27,2.69-1.37.28-1-1.76.25-2.91.79-5.76-1.4-6.29,1.4-9.12L394,1513l2.34-1.9,5.12-7.13-1.57.56-2.43,3.24L393,1513l-3.18,2.13-.62-1.26-.31-2.49-1.39,1.79-.14,1.68.05,3.13.09,2.35.67,1.56,1,1.4-.86,8.11-1.23,5.56-1.34-.3-3.7-2.8-2.88-5.82-3.21-7.43.95-3.61-.78-4.31-1.37-2.48-1.68-1.74-1.37.65-1.23.72-1-3.27-.2-1.87-.05-3.41,1.51-1.93.89-.34.87.2,2.1,3.74.47,1.65,1.43,3,3.19,4.13,1.14.81.34.12.05-.51-1.48-2.63-1.42-2-.73-1-.84-1.34-1.71-4.06.14-2.91,1.88-.47.86,1,2.16,3.58,1.23.42,3.38-4.61.42-1.18-.92-2.51,1.34,1,3.19,3.92,2.32,3.07,1.14-2.79,2.46-11.77-2.48-3-1.46-1.53-.89-.62-.81-1.34-2.16-4.84-1.48-4.14.48-2.65,2.88-2.18,5.45-3.81,3.91-1,8,1.9.7,2.46,1,9,1,2.65.17,1.26-.31,7.58,1.26,6.54.19,1.31,0,5.18-1.07,7.41-.75,2.79-.95,1.65-.37,2.35.93,2.74-2,2.18-1.95,4.22.11,1.79,2.63-2.68-.17-1.2.11-1.29,2.49-.53,1,1.14.92,2,.22,3.86-2,11.88-.53,1-2.52,3.08-3.41,3-1.26.37-4.22.11ZM636,1881.08l-.84-1.28-.89-.27-.79-1.08-.73-1.82-1-.9-1.14,0-1.36,1.09,5.4,5.8,2.14-.62,1.14-.73.95-.44,1.2-.19,1.9.35,2.6,1.14,7,3.42.7,1.39-.29,1.9-.63,1.38,1.63.52,2.31-.3-1.6,3.58,2.38,4,1.17.49,1.87.24-.46,5.46-2.85,2.76-.49.41-.19.08-1-.24-.52-1-1.28-2-3-3.5-1.51-3.37.46-2.52-4.24-3.59-.76-.24-1.3,1.63-2.23.16-2.6-2.36-2.66-1.25-5.16.06-1.51,1.87-2.06.9-1,0-1.67-1.29-1.69-2-1.08-2.16,1.24-1.88,2.51-.77,1-.16.92.4,1.27-.29.53-3.33-4.81,1.72-.56-1.27.72-3.75,1.13-3.33,1.54-1.67.37-1.24-5.92,4.6-2.35.58-4.26-1.32-1-.58-1-1-.84-1.42-1.06-4.34-4.86.9-1,.35-.84.6,2.37-.21,2.59.29,1.06,3.94-4,1.51-.58,2.72,3.22,5,.11,4,3.3.77,2.62.19-.32,3.91-.66.68-5.84-1.5-3.88.74-2.46-5.76,1-2.3,2-.48.68-.63-2.67-1.48-1-.08-3,2.64-1.45-2.83-3.41-1.55.21-2,1.14-2.22,2.9-2.3,1-.31,1.25-.56.89-1.29h-2.69l-1.81,1.12-3.73,2.87-6.12,1.78-1,.06-2.53-2.45,2.24-.4.86-.72-2.5-2.69-4.54-.23-.68-.75.89-2,3.21-3.65,1.47-.72,4.19-1,6.12-.69,11.43-2.16,6.92-1.8,8.27-.72,6.52.26.95-.21,2.87-2.24,3.27-.6,6-.63,4.33,1.72,2.56,3.48.66,2.81-.49,1.87-9.36,4.34-.72,1.09-2.41.63-5-1.38-2.1-1.35-1.46-1.49-1.29-1.15-.84-.63-4.59-3.22H618l-.72,1.6,3.63,4.08,2.66,1.65,4.45,2.61,6.79.29,5.71.11,2.5.18,3.92,2.62,2.61,2.9-.21,1.28-11.27,1.68-2.12,2.71Zm-183.08-99.85,1.9-1.33.38-6.27-5.1.3-1.66,1.22-1.41.68-1.14.35-3.34.09,1.77-1.44,1.11-.65.73-.87-.35-2.64-1.14-.08-1.55.17-1.19-.17-.84-.84.05-2.6.52-1.33.67-.65,1.66-.28,1,.82.79.08.9-.65,1.22-1.2.79.09,2.95,1.6.74,1,.48,1.25,1,1.65,1.11.71,3.37,1.06,1.11.08,3.58-.11,3.51-.6-.06-1.71-1.17,0-.81.76-2.63.22-2.55-.3-1.25-.19-2.77-.73-1.22-.85-4.75-7.68-.87-2.49,1.68-.19,1.36.49,2.14,1.08,7.11,1.39-1-3.32L458,1754.8l3.74-1.25,2.91.33,3.42,1.41,1.46,7-.62,2.93-.71,2.5,1.22,3.67,2.31-6.82.33-2-1.06-2.42-.93-2.47,2.83,1,2,2.53,2.36,5.43,3.31-2.66,3.93.57,1.77,1.14,1.49,2.57-.16,1.82-1.17-.13-1.11.4-.71,1.33,1.63,4.35,1.3-1.9,1.41-1.74,4.26,1.74.9.7,3.69,4.81-1.36,1-.67.19-.74,2.68-1.27.84-1-.1-3.07-.68-3.73,2.14v4.67l2,.62,1.58.74,1.25.38-.17,3-4,.4-4.07,4.1h-1l-.84-1-1.6-2-3.28,1.74-4.4,3.91h-2L465,1799l-1.17-1.3.79-1.11,4.4-.08,4.45-3,1.9-11.24-2.85-1.52-1.06.68-2.5,2.2-1.22.54-3.39-.22-.25-1.49-.13-1.71-1.41-.6-1.63,6.82-.06,1.6-1.16,4.53-3.5-1.6-1.36-3.39-1.33-3.67-.84-2.58.27-.65Zm202.38,72.71H659l4-.92,3.37.32,5.34.25,2.44-.25.87.6,4.71,0,1.7.17,2.69.64,1.48.42,1.33.55,1,.48,1.53.83.72.7,4.42,6.81.08,4.42-1,3-.53,1.12-.36.58-5.2,6.92-.39.31-1.73.22h-.53L681,1879.9l-.64-.27-.83-.54-.51-.64-.25-.67.11-1.1.78-1,.43-.7.11-.73-.27-.61-.78-.84-.78-.59-1-.35-1.13-.27-.78,0-.73.18-1.29.57-.45.46-.35.56-.41,1-.37,1.66.1,1.67-.43.48-.59.11-5.48-.4-.67-.24-2-1.24.56-.73h.41l-.05-2.55-1.17-2.09-.73.27-5.08,2.74-1.24.76-.28,0-.84-.11-.65-.27-.57-.38-.7-.71-.28-.65-1.52-7.22.25-1.14L650,1858l-.76.19-3.53.19-1.16-1.47-.52-2.33.62-.87.44-.25,5.13-2.19,5.1,2.71ZM450.63,1745l2.58-.49.46.17,2.82,1.9,4.37,3.09.44.73-.41.93-.57.32-.41,0-4.4-.27-9.6-2.55-.36-1.77-.24-.76-2.66-1.22-1.11-2.36-4.45-4.26-.63.16-3.74-3.72-2.39-3.09-3.26.73-1.63.87-1.84,1.17-9.07-.35-.89-.55-.95-3.77-2.85-3.55-.76,0-2.42-.63-3.12-2.47-.32-.73.32-1.11.73-3.07-1-1.71-.38-.27-1-.22-1.82-.89-.54-.35-2-2.66,1.62-2.47.49-.06,1.79,1.22,5.57,5.46,2.17,2.58,1.49,3.5,1.68,1.92,4.29,1,.49-.87,1.58-.43,2.6-.49,4,1.57,4.94,2.91,2.42,2.12,1.6,1,2.9,1.47,2.42.08.05-1.22,1.85.46,1.63,2.17.27.51.68,2.74-.38.76-.6.76-.35.87,1.41,3.86.41.68.59.32,1.47-2.66-.41-1.19-.38-1.44-.38-2.23.49-.68.57-.05.71.22,1.11.49,4.23,5.29.17.73-2.12,1.87Zm80.55,48.34.92,4.1,3.12.68,3.45-1.52,2.63,1.84.36.76.7,5,.16,6-4.66,7.22-.46.43-.71,0-.68-.68-1.46-1.93-2.2-.51-3.64-1.68-3.69-6.93-.19-1.11.3-1.08.46-.44,1.22-.11.57-.32.27-.52-1.49-2.44-3.18,2.63-1.46,4.34-.22.71-.11,1.47-3.91-.9-.67-.46-.82-2.06-.41-1.39-.29-1.25.16-.89,2.28-2.77-1-7.6.46-1.47.82-1,.62-.49,1.63-.32,3.88.08,3.58,1.57,3,1.63.35.33.33,1.11Zm28,12.64-.33-.1-3-1.24-1.46-.68-1.37-.76-.45-.38-3.27-3.06-.68-.78-2.12-4-.69-6.14,0-.76,0-3.44.28-.58,2-1.44,1.79-.69.59.1,3.11,1.07.78.71.45.17.38,0,.66-.38.48-.81,0-.75-.36-.89-.63-.81-.48-.35-1.57-.76-.33-.51-.2-.81-.15-4,.2-.86,1.09-.32.51-.33.48-.36.63-.6.81-.89.5-.73.28-.58.3-1,.28-1.21.28-.79.3-.53.56-.48,1.67-.28.56.58-.18,4.48-.15.68-.21.69-.1.73,0,1.24,0,.78.1.73,1.77,8.45,2.07,5.31,1.32,3.64-.13.94-.73.83-.76.25-1.34.08-.38,0-.68-.18L561,1794l-1-.71-1.11-1-1-1.55-.46-.58-3.39-3.36-.23.66v.78l.43,2,.23.61.28.53.73,1,.64.63.35.48.71,1.17,1.54,5,.25,1,.58,4.6-.43.73ZM516.14,1790l-1.92,2,.4.73.85.87,1.38,5.4-.14,1.06-2.25,3.34-.7.89-.55.14-.4-.06-1.44-.43-.57-.35-.49-.44-.6-.76-3.25-5.21-.09-1,.17-1.41-.33-.57-.6,0-.43.94-.05.87.19.9,1.33,4.61,1.41,1.77.54.32.92.52,3.77,4.77,0,1-.35.79-3.07,5-.4.27-.57,0-3.29-.76-.7-1.36.51-3.55-6.08-6.16-3.5-3.8-.51-.63L495,1799l-.25-.65-1.11-6.95-.16-1.46.19-1.06,1.62-.33.41,0,.41.08,2.36,1,.54.6.46,1.3,1.63,0,2-4.8.62-1.82,1-.54.79-.33,8.52,3.15,2.63,1.36-.16,1.06-.36.46ZM385.36,1559.27l-.84,1.31-4.87,6.55-.5.59-.9.33-2.91-.22-.42-.17-.17-.59v-.92l.45-1,1.4-.89,1.12-1.4,1.76-2.58-.56-.53-2.68.76-2,1.28-4.06,1.77h-.53l-.42-.42,0-1,.53-4.34,1-3.44,1.06-3,.31-.81.47-.62.54-.28.72,0,.67.25,2.66,1.12.17.61-.42.68-.39.25-1.12.22h-1.59l-.26.51.59,1.09.59.5,1.68.9,3.19.78,2.12-.34-.14-3.05-.44-1.9-2.75-.87-3-1.93-3.16-2.68-.7-2.24,3.24-2.58.68-.08,6.29,1.57.48.39,5.23,6.38-2,1.93-.59.7-.3.64,1.7.09,6.55-1.6.7-1.57-.39-.72,1.68-.76.58.7.4,1.34-.12,2.1-.7,2-7.63,4.51-.56.3-1.54.51Zm12.38,50.14-6.35-3-2.9-5.26-.17-.66v-1l.17-1,1-2.72.46-.35,2.22.19,4.51,1.2,2.14.86,2.91-1.6.21-4.8-.1-1.2-.38-.86-1-1.09-.46-.22-.65-.4-.24-.57.19-.66.84-.51,1.38.32,2.66,1.25,2.42,1.63,3.09,3.12.33.79.16,1,1,10-.79,3.53-.41.46-.49-.25-.16-1.22-.6-2.2-1.08-1.65-.6-.25-.43.14-4.4,2.66-.76,2.55-.3.52-3.17,1.11-.22.08ZM567.66,1852l1.09.13.38.41-5,2.33-1.66.17-.76.65-.11,1.08.14,1.14-.35.63-4.27.68-1.33-.11-1-.35-.87-.55-.46.27-.46,1.14,3.07,1.31,6.27.81,4.94-.81.59-.06,2-.08.38.22.25,1.33.57,4.07-1.14,1.11-1,.11-.52-.19-.46-.43-.35-1-1-1.08-.79-.16-.41-.17-1.3,1.06-.13,1.55.35.57,1,.57.84.13.44.28.24.65-.41,1-5.7,2.63-.7-.08-.38-.54-.22-.93-.11-1.25v-1.71l.68-1.49-2.2-2.6-3.58,3-.84-.19L545,1864l-2.74-2.25-.3-5.26.52-.66.57-.35,4.26-.92,3.17.73,1.63.52,1.79.89,4.81.17.67-.38-2.11-.93.27-.68,3.91-2.25.51-.16,2.36-.11,3.34-.35ZM418.14,1592.23l-1-2.82-.46-.57-.84-.62-1.74.92-.19.65-3.34-1.27-3.82-3.07-.38-.46-1.85-4.13-.3-.89-.19-1.2.17-.7,2.9-2.83,2.71-2.79-2.9-1.22-.41,0-1.35.49h-.57l-4.1-2.12,2.3-2.11.49-.38,1.25-.82.71-.3.51.08,6.46,4.29,3.45,7.93,1.44,3.42,2.14,5.56.19,1.22-.08,1.44-.46,2-.38.27-.33.08Zm166.13,269.42.29-1.93,0-.81-.68-1.5-1.14-.38-.22-1,.87-4.21.38-.3,2.31-.84.38-.08,4.26-.73,2.06.08,10.91,2.33,1.12.28,6.51,2.08,1.46,1.39-.67.46-1.25.11-7.22,1.82-3.77,1.14-5.7,1-4.26.73-5.59.33ZM429.43,1710.26l-.35,0-.54-.35-5-5.89-.33-.73,0-.62.84-2.34.38-.49,2.23-2.6,6.16-5.84,2.38-1.57.55-.08.54.16.49.41.41.7,1.65,3.5-2.22,7.9-2.15,4.7-.3.59-.54.79-.68.33-.65-.22-.41.05-1.3.79-1.17.84Zm-41.38-77.45-.36,0-.87-.6.22-1.6,2.71-2.14,2-.9.82-.43,2.85-3.15.32-.76-.4-.11-4.16,2.34-.81.65-.79-.27-.43-.71-.17-.84.14-.73.33-.57,6.16-6.63,3-.86,3.93-.17,1.74,2.07.3.54,1,2.74-.3,5.1-.49.84-1.6,1.85-.38.24h-.9l-.49-.38-1.35-4.53-1.58.84-.81,1.85-1.68,3.61-.55.3-1.65.35-1.47.11-2.11.27-.68.38-1.49,1.33ZM375,1589.9l-3.74-1-.79-.33-.41-.46-2.25-6.27.33-.76,1.76-1.82,1.25-.79.54,0,.57.11,1,.68.22-1.74-1.2-2.88-1.11-1-1.33-.95.08-.84,1.85-1.68.87-.11,7.87,1.74,3.33.19.38.41-.24.81-3.85,5.1-.63.16-.43,0-.71-.19-.6-.27-.67-.6-.11,1.71.16,3.94.16,4.48-.62,1.92-.68.46-.62.22-.36-.16Zm5.73-53.58-.65-1.14-2.23-2.71-.92-.33.33,1.82.29,1.09,0,.62-.51.27-.93-.35-1.22-1.25-.73-.89-1-2,0-.73.16-.74-2.2-1.71-4.31,4.13-.76-.3-1.06-2.42-.19-.59-.44-7.28,1.58-2.09,6.92-.65.46.14.46.38.57.68,1.41,2L380,1531l.19.6.79,4.31-.27.38Zm8.12,135.79-.68-1.28-2.83-7.95,3.37-9.09.65-.9,1.17,1.28.13.65-.46.87.08.67.95.19,1.28-.19.81-.27.9-1.08-1.17-7.49-1.14-3.1-1-.51-.54-.52-.08-.68.43-.67.73-.55.55-.27.78-.19,2.45.92.62.85.16.65.57,5.51.19,2-.59,2.61-1.93,7.62-2,6.35-1.92,3.42-.57.74-.47.38h-.37Zm-10.65-185.06-2-6.17-.32-.79-3.58,1.79-1.16,2.25-.31.45-.53.43-.78.1-5-3.93-.26-.48-.2-.5-.12-.94v-.65l.07-.76.13-.65.63-1.74.4-.56,2.77-.93,6.31.43.58.2,1.36.58.43.35.75,1.09,2.85,7.81v.68l-1.36,1.49-.4.33-.26.12Zm11.32,12.06-3.61-4.28-5.7-1.93-1.73-1.19.08-1,.35-.79,1.06-1.9.52-.73,2.52-3.2,5.59.35,1,.81,2.12,2.39.16,2.09,0,.76-1.38,9.74-.54-.43-.44-.7Zm-13.79,143.14-.3-.91.11-4.8,1.59-1.72,1.64-2.61.35-3.07.11-4.31-.05-1,.08-.86.18-.7.3-.57,1.78-1.61.62-.43.48,0,4.82,4.28.32,1.86-.13,1.77-.19.71-.59.45h-.51l-.57-.51-.7-.13-.37.27-2.37,5.38.16,1,.05,1.1-.08,1-.27.86-.46,1.08-5.17,3.31-.43.16Zm44.95,46.84-1.74-1.35-1.44-2.8-.27-4.94.27-.62.6-.46.44-.19.81.1.92.47.44.43,1,.57.47-.16-1.55-3.4-.41-.46-1-.76-3.36-1.14-2.2.33-.62.22-.9-.09-.76-.35-1.08-.89-.09-.82,2.61-2.47.68-.38.76-.27.4,0,.57.33.49.38,3,2.63,2.55,2.63,1.61,1.88,5.86,7.22,0,.86-1.63,1.23-4.88,2.55-1.25.05-.3-.3Zm-52.87-190.33-.35,0-4.32-2.36-.59-.44-.22-.57,2.12-4.2,2.06-1.42.54-.13.73.35,2-1.84,1.08-3,1.82-2.36.68-.55.68-.29.46.16.57,1.38,1.47,4.18.16.82-.76,1.57-.65,1-.35.44-5.51,6-1.58,1.27Zm31.48,97.13-3.09-.27-1.55-.46-4.07-1.44-.49-.76-1-4.23.19-2.06.21-.68,2.34-3,2.68-1,.57.19,2.39,2.28,3.18,7,.08.71-.41,2.28-.54,1.22-.52.14Zm20.68,65.57-2.63-.48-5.51-3.37-2.06-2.63-2.9-8.5,5,1.69,7.79,6.37,3.15,2.17-.06.68-1.63,3.48-.4.46Zm119.77,194.3-.65-.06-2.82-1.35-2.15-1.85-4.61,2.93-.6.3-2.58-.73-1.81-4,2-3.8,1.85.17,5.94,1.27,2.5.79,1.06.79,1.3.57,1-.19.84-.52.6-.79.46-.1,2,1.49,1.19,3.17-.79.36-1.27,0-3.45,1.58ZM436.87,1678.48l-.22-.54-1.06-2-1.76-2.71-2.66-2.82-.73-.57-2.34-1.63-5-3-.55-.35-.67-.6-.06-2.19.71-2.53,1.35-1,.49.11.74.57,6.54,6,2,1.92,1.39,1.42.35.7,2,4.53.84,3.42,0,1-.22,1.14-.59,0-.6-.87Zm-11.51-25.34-.87-.25-.57-.3-5.37-4-.81-.7-.63-.84-.05-1.14.3-.57,1.79-.38,1.68,0,2-3.44-.63-3.75.25-.62.35-.27.57.1.63.57,5.12,13,0,1-.55.65-.48.36-1,.51-.82.22-.4,0Zm258,259.26,0-2.09-.35-.35-2.06-.55-2.31.6-3.58-1.28L675,1907l.51-3.31,4.4-4.86,2.25-1.17.68,0,3.28,10,.63,2.72-.19.76-.87.76-.84.32-1.44.22ZM392.63,1673.27l-.24-.11-.79-1.49,4-13.46.3-.84.82-1.88.43-.92.43-.65.49-.05,5,.7-.16,1-6.35,14.06-.41.49-3.23,3-.27.22Zm99.44,124.33,2.15,2,1.16,2.39-1.68,3.63-1.93,3.48-.78.3-4.16.24-1.46-.22-.84-.54-.44-.49-.38-2.66,4.81-7.33.78-.78,1.33-.68,1,.08.35.3.08.3Zm-59.68-108.45-1.6-2-1.28-3.66-3.31-2.82-3-3.89-.3-.54-.33-1.36.57-.84,1.23-.7.43,0,1.82,1.23,1.6,2.57,5.35,3,.78.93.46.81.17.68,1,4.29-.16,1-.51.68-1.66.92-.95,0-.3-.21Zm15.85,64,.84.38.49.81-2.74,3.72,2.47,3.5.27,1-3.64,2-.78-.3-5.19-3.09-4.75-3.61-.59-.92-.68-1.28.13-.68.66,0,1.38,1.52,1.27,1,.82.57.65.27.41.08,1.6.14,3.28-1.25-.05-.68-.35-.33-1.2-.62.54-2.47,4.43.11.43,0,.3.09Zm-68.58-270.75-.76-1.63-3.2-9.77L377,1471l1.92.62.57.28,1.09.57,1.3.81,1.3,1,.46.51.33.46.54,1,.19.59.71,3-.11.68-.33.52-3.93,1.68-.68,0-.65-.24Zm28.69,132.77-5.15-2.47-.55-.52-1.14-3.34.17-1.73,4.09-3,.65-.09.44.22.46.79,2.39,5,.22.6.1.71v1.71l-.92,2.14-.49.11-.27-.08Zm7,.73-1.6-8.17-.55-3.44-.4-5.79.27-.59,1-.06.76,1.63,2.31,7.46,1.36,5.51.29,2.26-2.19,2.74-.55.3-.54-.06-.3-.54.08-1,.06-.22Zm154.42,194.57h-.46l-.81-.14-5.19-2.14-.73-.41-1.52-2.31-.3-.59-.08-.82.25-1.16.35-.79.51-.14.76.17,6.79,2.71,2.25,1.44.68,1.09-.11,1-.46.78-1,1.06-.51.16-.44.06Zm-115.45-9.21-2.39-1.3-4.75-2.2-.4-.67,3-2.8,1.43,0,1.28.08,2.63.35.49.22,2.14,1.19.19.68.66,3.23-.57.68-.68.16-3.07.43Zm247.16,73.09.76.82.87,3.36-.6,1.6-1.22,1-.73.22-4.18-.22-1.93-.16-.38-.33-.4-3.34,1.11-1.79.87-.51,3-1.2,1.08-.11.74.17.65.27.35.24Zm-241-206.75-.16-1.3.22-1.17.27-.84.27-.62,1.63-3.48.35-.27,3.1-1.57,3.06-1.14-.19,2-3.74,7.84-1.06.43-2.17.76-.82.14-.4-.25-.36-.54Zm-37.23-41.9-.46-.33-.46-.62-.68-4.15,0-.63.44-3,.3-.57.43-.21.73-.09,2.83.47,1,.65.25.87.49,3.14-.11,1.42-3.67,3.12-1.08-.11Zm-40.58-152.69-.27-.14-4.18-2.71-.11-.89,2.34-3.07,4.07-4.67.52-.11.27.71.13.62.17,1,0,.76-.08.81-1,4.26-.95,2.66-.4.65-.47.14ZM397,1571.69l-.84-.27-.27-.46,1.2-5.81,2.17-1.66.43-.16.71,0,2.33.27,2.42.79.1.62-.54,1-3.23,2.82-3.17,2.64-.57.24ZM409.68,1519l-.38-2.31-.44-5.38.27-2.36.19-.92.46-.19,2.31,2,1,.92.38.62,1.71,3.69-.19.55-4.78,4.15-.51-.81Zm-26.25,139.11-.32-.32-.19-.63,1-5.86.7-2.47.25-.65.59-.73.85-.65.76-.28,1,.19.82.82.13,1-.35,2.33-.68,2.52-.6,1.88-.38.73-.43.46-1.71,1.49-.9.33-.54-.14ZM421,1630.31l-2.33-1.33-1.55-1.11-.46-.57-.55-3.29-.1-1.87.16-1.14,3-1.06.52.33,2,5.56.21.62.08,3.29-.21.68-.49.1-.3-.21Zm291.59,248.06-1.79-.46-.38-.55-.22-1.16,0-.68.65-2.77,3.37-2.44.9-.06.59.08,2.66,1.25.46,1.2-3.5,4.48-2.3,1.11Zm-150-31.43,1,.27.76.38.92,1.28-.4.73-.49.16-7.11,1.47h-2.88l-2-1.2-.54-1,.54-.54,1.31-.76,4.15-1.19,2.88-.33,1.71.6.21.08ZM385.11,1590.28l-.48-.55-.3-.54-.93-2.71-.08-1.12,1.28-3.69.51-.3,2.94.11.32.49.11.87-.3,8-.46.36-1.25-.14-1.36-.81Zm100.45,230.47-.46-.22-1.93-2.61-.6-2.76,4.32-2.47.84.08,4.15,1.71.19.7-.38,1.39-2.68,1.22-.47,0-3,3Zm-87.33-152.26.35-1.38.25-.68.43-.65,5.94-6,1.36.84.76,1,0,1.85-.43,1.24-2.23,1.52-4.58,2.85-1.69.84-.4-.35.27-1.06ZM567,1802.67l-.41-.05-3.42-2.5-1.09-1.17-.51-.81-.19-.92.27-.65.38-.3,6.54-1.25.35.57.44,1.25.22,1.33-.9,2.58-.57,1.24-.46.44-.65.24Zm-134.64-36.88-.44-.25-.81-3.17.43-5.08.38-.54.52.08,5,3.5.82.74-.08.84-.33.6-3.91,2.65-.57.3-.62.22-.38.11ZM449,1724.73l-1.12.13-.51-.08-1.3-1.36-.3-.57.4-.84.66-.08.38-.22-1.36-.89-1.52-.54-3.12-.28-.71.11-3.42.71-.81.49-.41-.49,2-1.93,4.75-1.14,5.67,1.63.49.38,1.57,2-.49,2.85-.89.17Zm-14.88-71.62h-.38l-.92-.19-.7-.41-.3-.54-3.31-6.84-.06-1.22.3-.57.9-.06,2.55,1.39,2,2.66,1.14,2.6-.06.76-1.17,2.42ZM672.82,1920l-1.25-3.34-.43-.3-2.25,0-4.56,1.33-.52-.22-.38-.57,0-1.08.57-1.41,1.22-.33.43,0,1,.38.76.19,1.55.29,4,.11,1.47-1.11.43-.22,1.74.52.65.87-1.14,3.2-.43.52-1.82-.63-.46.06-.6,1.76Zm23-61.45,1.87.52,4.21,1.57.48.65,1.52,5.13-.57.3-.76-.35-8.6-5.94-.43-.93.19-.7.32-.38.76-.14.74.19ZM397.33,1684.37,395,1682l-.41-3.17,6.73-1.71.9.24.19.65-2.77,5.27-1.17.78-.76.3-.35,0Zm37.12-58.95-2.79-.62-.38-.27-.95-1-.82-2.45.25-.62.89-1,1.52-1.47.66-.16.67.22.68.41.52.54.35.49.3.54.24,1.06-.08,1.3-.57,2.33-.24.63-.25.05Zm-47.06-156.73-.92-.08-.51-.4-.06-.76,1.39-3.42.65-.9,3.28,0,1.93.27,1.14.57-3.53,3.39-.65.54-.52.28-1.16.38-1,.1Zm9,207.54-.67-.19-.36-.52-.16-.65.05-1.3.52-1.36,6.81-4,.49,1.25-3.23,5.57-2.39,1-.68.16-.38,0ZM668.32,1901l-.38-.52,1.38-7,.57-.84.84-.55.57,0,.65.71.41.51.6.79.38.54.41,1.12-.11,2.33-2,1.52-.84.6-1,.38-1.49.38Zm-93.9-41.64-.41-.05-.57-.33-.57-.59v-.71l.52-.62.46-.44,5.56-3,.65-.27.57,0,.38.32.47.71,0,1-1.33,2-3.63,1.46-2.12.46ZM424.06,1744.24l-.19.76-1.71,2.91-1.09.7-2.41.79-.68-.08-.41-.27-.68-.87-.1-.71,2.11-2.11,1.63-1.47,1.63-1.22h.46l.54.35.82.76Zm262.87,175.3-4-2.15-2.39-2,.25-1,.41-.3.7-.24,2.15.16,2.82.93,1.33,1.9.13,2.41-1.44.25ZM431.66,1658.32l-3.1-.6-.43-.44-.33-2.9L429,1652l.49-.38.49.08.43.41.38.46.74,1,1.68,2.77-.16.89-.82.79-.54.33Z" transform="translate(-360.17 2.07)"/><path id="CL-TA" class="cls-1" d="M569.65,71.25l6.15-.3,6-3.74,6-4.49h10.86l6,3.72,6-.76.76-4.53,3.77-3.86h5.84l-.49,1.2L623.1,63l4.53,3.15,1.63,1.43,3.18,3.64.62.6,1.3.62,1,.27,1.19.63,2.31,2L640.72,78l-4.16,4.31-.81,1.09-1.14,1.68L631.32,89l-.1,1.57,2.47,1.77,2.28,2,1.68,3.39-2.09,5.59-1.28-.08-1.54.22-4.89,1.33-.3,1,.71.9,1.76,4.12.68,4.13-1.22.57-.76.87.08,2.06.52,1.08.57.84,1.3,1.39,1.11.76,1.25.62,1.14.46,1.14.38.81.36,2.2,1.52,1,1.06-.19.81-1.44.87-.76.65-2.14,1.9,0,5.74.21.86.08.11h0l-2.87-.19-6.94-.91-3.35.43-.86.21-.73.43-.4,1,.56.81,1.08.64,3,1.19h1l1-.08,2.1-.46,1.1.27.46,1-.3,1.75-.38,1.1-1.55,2.88-.62,1-.49,1-.24,1.16v1.29l-3.55,1.53-4.78.52-10.26,3.09-12.26,2.87-2.87.65-2.66-1-2.37-.4-4.3-.49-1-.08-4.17.22-.56.21h0l-1.24-2.39-.19-1.29.89-1.37-2.1-8-.91-2.07-.83-1.75.64-2.23.7-1.31-.29-2.13-.62-1.13-.65-.51-1.42-1.26L574,117.55l1.13-3.68.19-1.11-1-2.52.43-3.07.51-1.18.37-1.19.08-3.14,0-1.13-.54-2.69-1.37-10.65L572.6,81l-1.34-4.92L569.57,73Z" transform="translate(-360.17 2.07)"/><path id="CL-AN" class="cls-1" d="M638.63,139.61l1.09.16,1-.11,1.21,0,7.95,12.11,1.67,2.63.11,12.9.66.76,1.27,1.63.69,1.28.69,2,.6,3.1.11.92.06,1.55-.06,1.36.09,2,3.62,3.55,1,.55,1.18,1.84.86,5.57v1.44l-.4,1.09,1.72,5.24,1.67,5.35L664,213l.32,4.81,3.39,2.06,8.76,1,10-2,6.21-1.31,3.21,3.29,4.25,4.26-1.92,5.08-1.87,4.89L694.48,240l-.51,1.41-7.56,26.42-12.4,5.3-10.6,4.48-11.89,4.94-2.59,1.14-1,2.07-1.7,2.09-1.92-.3-1,.6-3,4.26-1.84,2.77-1.35,2.5-1.09,2.22-.15,1.33.95,2.37,2,1.08,5.92,9.59-2.64,1.33-2.7.41-.43.38-.75,1.17-.8,3h-2.33l-1.57.19-1.22.76-1.58,1.33-1.3,1.22-.92.68-.95.21-1.93-.11-1.49-.21-1.25.19-1.36.54-1.11.6-.84.57-2,1.54-.79,2.12-.38,3-.79,1.49-.84,0,.38,7.6H603.91l-1.52,4.42-3.77.76L594.85,352l-6.05-4.53-3.07-4.12-.52.05-2.6-.24-1.14-.22-1.41-.11-1.39.57-.73.41-1.44.92-.89.79-4.92,3-2.74.27-3.58.54-1.65.33-1.09.27-1,.35-.73.38-.71.43-2.14,1.61-1.85,2.55h0l1.06-1.9.17-.84-.14-1.39-.76-2.33-1.09-1.14-.76-.87-1.27-3.12,1.22-4.48.65-2,1.9-4.13,2.31-3,1.41-1,3.34-4.48,1.47-4.48v-2.44l-1.66-2.34-1.82-2.49.22-5.62-1.22-2.5-.71-2.31-1.41-5.34.62-6.68.76-6.78.33-2-.49-.87.68-3.47.6-2.15.43-.81.3-2.9-.19-2.53-.65-1.49,0-1.44.38-5.24.52-2.87,1.16-1.55,1-.79.62-1.14.79-1.95.35-1.14,2.12-1,0-1.65-.31-1.3-.47-1.31-.5-.62-1.25-.92-1-.55-.8.36-1,2.33-3.15-.6.83-5.07.19-6.11.73-6.89,1.3-1.55,1.32-.62.29,1.84.73,1,2.21-.44,1.2-.62.73-.68.62-.79.44-.73,1.07-2.63.78-2.31-.21-1.22-.31-.9-.36-1.9,1-6,.93-8.06.58-5.73.73-6.27.54-2.63.78-3.07L576.4,174l-.16-1.28,0-2.79.65-2.23,1.69-1.52.21-2.06,1.2-4.4h0l.54-.21,4-.22.94.08,4.16.49,2.29.41,2.58,1,2.78-.65,11.87-2.9,9.94-3.12,4.64-.52,3.43-1.55v-1.3l.24-1.17.46-1.05.6-1,1.51-2.91.37-1.11.28-1.76-.44-1-1.07-.27-2,.46-.93.08h-.87l-3.22-1.2-1.15-.65-.6-.81.43-1,.78-.44.92-.21,3.59-.44,7.41.93,3.07.19h0l.2.43.86.9Z" transform="translate(-360.17 2.07)"/><path id="CL-AT" class="cls-1" d="M635.75,323.61,635,326.9l-.16.84-.11,1.3.14,1,1.65,5.08,2,4.29.3,1.05,1.49,6.93,2.12,10.85-.76,1.22-2.34,2.15-1.55,1.08-1,.79-.74.95-.51,2-.14,1.33-.13,2.36V371l0,2.06.21.87.38.87,1.06,1.65,4,4.81,5.43,8.41.3.89-1.36,4.78-1.19.73-1.47.79-.73.35-9.06,3.1-1.9-1.25-1.71-.27-1.66.11-1,.54-1.54,2.5-.76,1.43-.44,1.33.36,1.66L623,410.08l-5.46,10.29-1.08,1.25-1.55,4.45-.27,1.79-1.36,5.56-.35,1-.52,1.14-.6.82-1.11.27-1.41.14-1.44.73-1.16,2.71-.44,1.93-.51,1-1.85,2.36-5.16,5.83-2.82,2.36L594,455.13l-.27,6.14-.27,1.49-1.22.68-3,3.44,0,2.21.27,1,.38,1,.24,1.46-1.3,3.89-1.21,5.71.08,2.35-.24,1.08-.49.78-1.24.84-2.44.27-2.27,2.73-2.65,3.95-.21,2.68.21,1,1,2.16,1.46,4.89.14.51h0l-4.62-.43-6.79-3-3-1.51-5.33-1.52.22-1.19.08-1.7-.54-1.81-.46-.7-5-5.89-.9-.92-1.05-1-1.24-.84-1.11-.68-1.24-.35-3,2.3-1.52,3-3,7.51-6,.76-3-4.52-2.52-5.46-.54.33-.78.35-4.65,1.05-1.46.3-1.43-.05h0l.59-3.33-1.13-5.81-.11-3.51.32-1.09,1.33-1.48,3.48-3.38,3.11-3.81.33-2.33.19-2.62.94-1.89,1.08-1.7,2.57-5.47.22-5v-3.64l1.76-8.39,1.35-5.1.87-2.55,1.44-2.69,1.44-2,1.65-.78,2-1.5.85-5.91-.66-2.31-1-4.34-1.17-6.68.32-1.06.49-1.16.87-.68,2.28-.49,1.93-2.66,1.11-2.17-.62-2.66-.65-1.44-.22-1.14L553.52,377l.38-1.47.4-5.4,1.71-5.78L553.87,360v-1.44l1.36-3.39h0l1.84-2.55,2.15-1.61.7-.43.73-.38,1-.35,1.09-.27,1.65-.33,3.58-.54,2.75-.27,4.91-3,.89-.79,1.44-.92.74-.41,1.38-.57,1.41.11,1.14.22,2.61.24.51-.05,3.07,4.12,6.05,4.53,3.77-4.53,3.78-.76,1.52-4.42h11.31l-.38-7.6.84,0,.79-1.49.38-3,.79-2.12,2-1.54.84-.57,1.12-.6,1.35-.54,1.25-.19,1.49.21,1.93.11.95-.21.92-.68,1.31-1.22,1.57-1.33,1.22-.76,1.58-2.9,2.09,2.71H637l-.79,1.73Z" transform="translate(-360.17 2.07)"/><path id="CL-CO" class="cls-1" d="M523,489.44l1.44.05,1.47-.3,4.67-1.06.78-.35.55-.32,2.52,5.48,3,4.53,6.05-.76,3-7.54,1.52-3,3-2.31,1.25.35,1.12.68,1.24.84,1.06,1,.9.92,5.07,5.92.46.7.55,1.82-.08,1.71-.22,1.19,5.35,1.52,3,1.52,6.81,3,4.64.43h0l.08.38.11,2L582,509l-.19,1.2.24,1,.49.71,1.25.84.11.32.38,3.5-.11,5.27-.43,2.47-.25,1.14,2.39,4.61.84.74.49,1-.11,2.07-2.6,6L583,542l-2.31,1-1.22.13-.84-.13-3.18,2-3,5.32-1.58,3.5-.65,1.81-1.82,6.55-.43,2.95-.16,1.82.13,1.14,1.41,1.74-.13,1.52-2.58,2.85-2.63.92-.82-.87-2.68,2.91-.41,1L559,584.53l-.3,6.63-.44,2.74-.3,1.52,4.94,12.13.47.73.65.9.7.46,1.49.32,2.66-.16.76.44,1.82,2.09.19,1.22-1.25,3.5-1.62.24-1.63,1.77,1.25,6.43-.17,1.68h0l-3.63.46-1.09-.65-.32-1.06-.6-2.17-1.09-.92-1.06-.33-.78,0-1.06,0-1.77-.3-1.79-1.3,0-1.11-.14-1.49-2.66-1.63-11.77.35-1.2,1.93L537.4,621l-.82.54-8,1.85-1.63-.08h0l-1.06-.38-1.76-.9h0l-1.09,0-.89.6-.85.92h0l.25-4.32.41-2.17.24-1.06-.86-1.81v-3.91l1-5.49-1.12-2.65,2.83-4.59v-2.8l-4-1.19-2-9.36-1.49-6-3.41-.84V576l3.63-2.42.19-4.1-.46-1.57-.6-1.06-.19-1,.14-6.41v-4.64l-.82-4.37.11-2.39.68-7.3,1.27-3.06,1.17-.44.46.74,1.28.48.92.06,1.38-.68,4-4.07.76-1.36,1.79-8.93,1.93-2-.09-3.34-1.16-1.22-.71-2.63.16-8.69.57-3.34.49-1.49,0-1-1.25-4.16-.55-.92-.95-.92-2.06-1.49-.95-.55-.81-.62-.44-1Z" transform="translate(-360.17 2.07)"/><path id="CL-RM" class="cls-1" d="M578.19,720.13l0-1-.28-.93-1-.7-1.85-.74-1.25-1.34-.19-1,.13-3.08-.46-1.91-.68-.52-1.07.08-1.09.8-.92.24-2.73-.93.35-2.37-1.52-5-.87-.79-1.37-.46H562l-4.55,1.77-1.53,1-2.83.22-1.07-.35-3.19,2L543.77,711l-.17,1.06.14,2-3.19.73-3.71.11-.11,0-3.16-4.64-4.88-2.1-2.45-4.52-6.27.35-3.84-1.58h0L518.2,701h0l1.25-4.28.85,0,2.2.11,2,.6,1.28-.08,1.91-2.05,1.69-6.38-1.45-3.54-.57-3.19,0-.93,1-.54,2.73-2.75,1.2-1.56.33-1.06-.09-3.27.52-1,2.4-.41,2.37-.06,2.7-1.82-.14-5.78-.49-2.1.36-1.72.79-.38,4.47-1.72h5.34l3.65.9,2,.74,1.59,1.5.51,1.8L560,664l.93.08,2.5-2.12.9.11,2.7,3,4,1.78,3.25-2.84,2-1.06h0l.57,1.14-.25,2.13-.38,1.39.22,1.23,3.68,5.5,1-.13.79-1.42,1.09-1.12.95-.16,1.06.35,2.78,1.56,1.12,5-.33,1.17-1,1.18-2.35,5.42-1.36,10.36,0,2.26.76,3,1.39,9.57,1.2,6.4-2.73,2-1.8-.14-.9-.24-1.11,0-1.67.33Z" transform="translate(-360.17 2.07)"/><path id="CL-VS" class="cls-1" d="M526,623.13l1.63.08,8-1.84.84-.55,1.85-2.06,1.19-1.93,11.78-.35,2.66,1.63.16,1.49.06,1.11,1.79,1.31,1.76.3,1,0,.82,0,1.06.32,1.08.92.6,2.18.32,1,1.09.65,3.64-.46h0l.29.87,2.66,1.16.52,1.44,3,6.11.3,1.38-.22,1.68,1.55,1.71,2.41,2.42,3.48,4.5.35,3.83L580,654.83l-1.08,3.34-2,2.6-1.08,2.12h0l-2,1.06-3.23,2.82-4-1.76L564,662l-.89-.11-2.5,2.12-.92-.08L558.38,662l-.52-1.79-1.57-1.52-2-.71-3.61-.92h-5.35l-4.45,1.71-.79.41-.35,1.71.49,2.06.16,5.75-2.68,1.82-2.36.06L533,671l-.52,1,.09,3.26-.33,1.06L531,677.84l-2.74,2.72-1,.54,0,.92.57,3.18,1.47,3.55-1.68,6.33-1.9,2-1.28.08-1.95-.59-2.2-.08-.84,0-1.25,4.26h0l-3.64,2.37h0l-1.35,1.7-1.36-.24-1.47-.32-1-.85-1.82.06h0l1.17-4.24,1.33-3.14,1-.38,1.36-.28,1.11-.57,1.36-1.19.7-1.82.22-.92.24-1.47.36-3.5-2.12-8.44-.46-5.34-1.93-6.87.38-.84,1.85.11,5-3.67,1.79-5,1-6.27,1.6-3.15.44-1.33.16-1.41,0-6.54,1.36-4.42L523,628.59l-1.6-2.42-1.06-2.74h0l.87-.95.9-.6,1.08,0h0l1.77.9,1,.38Z" transform="translate(-360.17 2.07)"/><path id="CL-AR" class="cls-1" d="M446.08,912.57l.16,0,.76.38,1.19.65,3.18,2.12,10.15-10,.62-1.22.27-.95.3-1.49-.7-1.17-1.36-.68-1.41-3.83,4.61-7L465,888l.43-4.4-.52-1-2.44-.21-.84-1,3.56-4.46,5.29-.78,1.63.89,1.62,1.06,1.39.82,5.29,1.27,3.28-.08,2.37,2.77,1.08,2.66L489.5,889l1.76,1.08.82.33,1.3.22,1.38.35,1,.49,3.31,2.85.46,1.16,1.25,1.55.82.57,5.8,1,4.78-.46,1.14-.33,1.33.52,1.25,1.81v2l-.16,1.5-.09,1.6.17,1.14.76,2.87.49,1,1.38,1,.62-1.24.52-1.22.62-.68,3.42-1.63,2.53-1.33.65-.63.6-1.65,4-.87,8.93-.19,2.47.41h0l0,2.22-.49,3.59.41,2.82,1.22,6.38.81,1.73,1.66,1.74,1,.62,1.41,1.14.7,1.66-.16,1.6-1.22,5-2.39,2.5-.87.41-1.87-.06-1.22-.13-1.06.16-1.71.87-5.45,3.2-3.67,2.2-1,.65-1.27,1.22-.66,1.09-.29,1.24-.17,2.64,0,1.27.38,1.3.38,3.15.57,5.49-.6,4.47-1.81,5.24-1.36,6.27-.3,1.87-.54.93-3.56.19-1-.47-1.6-2.25-.6,0h0l-.11-1.09-.24-1.24-.46-1.2-.82-.13-2.6-.06L510,968.94l-1.05-1-1.23-.84-1-.33-6.16-.54-1,.19-1,.49L497.48,968l-.76.85-1,.54-3.66,1.41-1.47-.22-1.79-.89-5.7-2-1.14,0-2.9.54-1.11.06-1.2-.11-1.11-.25-1-.68-1.14-1.27-1.14-2.09L472,961l-.86-.68-5.59.11-1.9,2.36-.76,1.3-1,1.06-1.19.63-1.19.13-1.09-.13-1-.25-1.3-.38h0l1-1.74-.27-5.48-2.17-7.71-6.82-19.48-2.25-7.55-.92-5.86.05-1.57.68-2.85Z" transform="translate(-360.17 2.07)"/><path id="CL-LI" class="cls-1" d="M517.77,702.35l3.76,1.6,6.13-.36,2.4,4.57,4.78,2.11,3.09,4.68.11.06,3.62-.11,3.12-.75-.13-2,.16-1.07,5-6,3.12-2,1,.36,2.78-.22,1.49-1,4.45-1.78H564l1.33.46.85.8,1.5,5.09-.35,2.4,2.67.93.9-.25,1.07-.79,1-.09.67.53.45,1.92-.13,3.11.18,1,1.23,1.34,1.81.75,1,.71.27.94,0,1h0l-.19.47v2.78l.27,2.14-4,6.19-3.15,6.17L569,747.18,566.65,754h0l-.3,0-2.24-.16-6.88-.72L553,749.74l-1.6-1.68-.75-.47L540,744.31l-1.44-.38h-1.06l-6.75.55-3.15,2.81.14,1,.16,1.63-5.82-1.08-5.76-.38-3.86-1.21-5.23-2.21-1.31-2-2.18-2.78-.7-.5-1.12-.46h0l.38-1.85.56-6.3-.3-2.78-.1-1.84.8-1.35,1.41-.83.37-1.21,0-2.42-.24-3.49-.8-1.1-.3-.94.14-1.57,4.53-8.5,1-1.38h0l1.79,0,1,.85,1.44.33,1.31.22,1.33-1.71h0Z" transform="translate(-360.17 2.07)"/><path id="CL-LL" class="cls-2" d="M401.72,1181.72l-.73.7-.87.08-1-.13-.57.13-.76.3-.46.25-1.38,1.14-.33-.06-.6-.35-1.33-2.12-.24-.46-.22-.52-.16-.51.11-.87,3.25-1.63.47,0,3.28,1.65.38.36.87,1,.32,1.06Zm47.06-56.78-.08,1.79-.73-.13-.35-1.39-.19-.51-.25-.47-.59-.48-3.61-1.9-.52-.22-1.25-.27-.54-.38-1.06-3,.11-.52.62-.24.9-.11,1.33,0,.92.22.73.54,4.56,7.11Zm-18.15-37.4-.76,1.06h-1.09l-1-.7-.79-.25-.6,1.09,1.33,1.46,3.42,1.23,1-.79,1.58-1.09,4.07-2.52,3.8-.52,1.14.14,2.69,1.82-.87,6.78,3,4.64-.63,1.71-1.06.41-.27,1.14.46,1.44,2.61,1.76,1,.25,1,3-.43,1.87-.49,1.17-4,1-2.11-.3-.93.08-2.63,1.42-.87.54-.62,1-.27,4.4,1.22,1.27,1,.55.62.7-4.18,1.74-2.14-1.93.73-2.06-1.25.38-1,2.09.46,4.78,7.28,7.3,1.87.65,2.12,1.52.65.7.54,2.8-.3,1.19-3,.49-1.47-.13-1.27.7-.36,2L441,1147l2,1.6.22.82,1.33,2.55,1,1.41L446,1155l-.89.76-8.66-.76-1.58.62.57,4.42.93,1.06,1.08.76.71,1.9-.79,4.7-.76.32-5.1,1.17-1.36-1-1-1-1-.33-3.59-.16-4.07-.55-5-1.43-3.45-1.85-.71-.6-.65-1.11,2.8-7.22,3.66-4.48-.54-1.71,1.19-1.16,1.69-4.32,1.27-12.51-.22-3.69-.73-2.72-.68-.57-.95-.67.68-4.43.79-9.47.38-.92.73-1.09.79-1,1.82-1.77,1.19-4.07,1.3-7.81-1.49-3-.43-1.11,0-1,1.28-2,4.51.4.92,2.06Zm5.32-78.19,11.59,1,2.28,3.77,3.77.76,6.05-4.53,6.05,2.25,3.77,6.79,5.3,3.77,6.78,6.05,7.55,3,4.53-5.29,3-4.53,6.05-.76,7,1h0l-.13,2.14.05,1.39-.76,2.17-.76,1.08-.81.85-1.17,1-.76,1.3,1.38,4,2.47,5.4.47,2.2-.82,2.85.73,2.41-.81,9.34-.16,1.25-.68,1.44-.6,3.2.22,1.55,1,2.36.67,6-1.62,2.8.14,1v1.47l1.46,5.89,2.41,4.88.41,1.33.54,3,.14,2.77,1.08,1.55.19,3.39-2,1.82-5,2.39-1.2-.22-.38-1.33-.54-.89-1.25-.25-.92.49-.81.79-3.56,7.08.82,1.57,2,1.74.47,1-2.58,8.23-.57,1.08-.36,1.14-.16,1.11.41,4.07.68,2.72.13,2.09.19,4.94-.11,1.41-.35,1.71-.49,1.17-.27,1-.13,2.6.7,1.77,1.55,2.6,1,.84,2.06.9,1.54,0,1.09.06,2.42.24,1.24.33,3.7,2.28.24,5.4-.27,1-.73.52-1.42-.36-3.88,1.31-1.3,3.25-.22,3.53,3.34,2.5,5.67,5.37.44,3.42-.49,1.22-2.44,1.63-.76.3-1,.46v1.52l2,3,2.25,2.55h0l-2.93-1.37-1.32,0-5.48,2.69-.55,2.16-5.46.61-.3-2.11-.71-1.46-1.29-1.64-1.15-.8-1.75-.16-.83-.36-3-5-.2-2.27-1.86-.74-1.29.9-1.67,1.73-1.29,1.92-.55,2.14-7.54-1.29-2.44-.63-.79-.63-2.58-.06v-2.16l0,1.82h0l-.65-.06-1-.38-1.47-1.55-1.93.38-1.68,1.17h0l-.16-1.84.27-6.25-2.58-6.16-.38-1.22,1.33-6.81.81-1,1.5-1,1.11-.68.9-.52.78-.27,3.1-.6v-3.85l-2.47-2.23.29-1.3,1.55-2.88,1.39-1.57,1.27,0,3.4,1.85v-7.14l-1.77-1.49-1.14-.71-1.11-1.14-.6-1.52-.54-3.06-.06-2.8.19-7.38,1.36-3.45.87-.35,3.45.19,1.11.22.81,1.06,3,2,1.14.32.49-.65-1-1.6-1.82-.49-1.25-.6-1.55-1.27-6.35-9.88,1.87-2.23,1.9-1.38,5.68-1.82,1.22.68,1.11,2,0,1.14,3.5,10.17.68.52.55-1-.33-3.88-1.36-6.9-.51-2.22-.49-3.8.08-1.44.24-2,.28-1.38.35-1.31.11-1.65-.71.43h-1.65l-1.33.57-2.53,1.49-4.86-.73-3-1.63-1.6-2.28.32-1.33,2.07-3.28,5.83-5.94,1.6.05,1.3.27,4-1,2.72-1.36,2.14-1.92.68-.84.87-10.29-1.41.52-1.36,9.17-.87,1.63-2.77,1.38-4,1.3-1.3,0-.9-.38L477,1081l-1.14-3.45-1.31-1.84-2.55-3-1.49-.84-3.56-.9-2.95.9-1.28.54-2.39,3.77.55,2,.73.68.54,3-2.71,2.85-2.55,1.93-1.31.21-2.71-.62-1.25-.41-2.55.08-.76.33-1.87.89-1,.36-.66,0-2.47-1.57-4.58-.92-2-.11.6-3.94,1.73-2.63.71-.49,1.28,0,1.27.19,1.44-.44,2.52-4.69-1.19,1.14-.79,1.76-.76,1-1.11.36-4.64-.46-2.36-1.52-3.59-4.37-.08-1.9.71-1.66-.14-3.45-.46-2-1.33-3.74-1.22-1.55-.6-1.3-.78-4.89-.84-5.72,1.84-5.57,4.42-11.94,1.77-2.31,1.57-3.39-.3-1.87-1.08-2.77,1.63-7.41Z" transform="translate(-360.17 2.07)"/><path id="CL-ML" class="cls-1" d="M541.41,823.88l-.24-.13L540,822.42l-.41-1.69-.27-1.41-1.33-.68-.9.14-.73.54-3.07,3.91-.29,1.22-.11,1-1.12,1.25-1.57-.22-3.83-2.11-.78-.79-4.16-3.42-3.23-1-2.41-1-1.41-.89-.95-.92-.49-1.2-1-2.12-2.52-.4-.92.27-1,.41-.87-.06-2.09-.49-.68-.59-.27-.9-.52-1.19-3-3.15-.3,1.46.08,1.2-2.77,3.12-4.75-.14-1-.32-7.38-3.86-5.6-4.94-.27-1.65-.59-.65-4.32-1.93h0l.73-.49L476,797l4.18-4.23.49-1,.32-1.49-.08-1.74-.92-2.25-1.63-4,.11-1.33.87-1,1.6-.9,2.66-2.25,2.47-6.24,1.36-3.94.57-1.14,1.63-2,1.24-.81,1.5-.87,2.19-2.15.79-1.73.35-2.09.11-1.41.06-1.66.05-1.36.33-2.55,2.11-4.69.87-.93.76-1.16.93-2.77h0l1.14.46.7.49,2.23,2.74,1.33,2,5.32,2.17,3.93,1.19,5.86.38,5.92,1.06-.16-1.6-.14-1,3.2-2.77,6.87-.54h1.09l1.46.38,10.83,3.23.76.46,1.63,1.66,4.34,3.33,7,.71,2.28.16.3,0h0l-.08.36-.06,1.79.06,1.74.16,1-.22,2.09-.67,1.14-2.72,1.39-1.19.24-1.33.06-.92.24-.95,1.49-.09,1.22.66,1.36.67.54,4.27,2.66,1,7.11-.3,4.7-.57,1,.38,1.76,1.33,3,1.19,3.61-1.22,1-1,1.79-.38,1.06.16,3.72.44,4.94-1.09,2.87-.54.74-1.11.62-1.44-.11-3.26.14-4.48,5.05-.51,3.5.84,2.22-.41,1.14-9.5,3.45-1.11-.16Z" transform="translate(-360.17 2.07)"/><path id="CL-AP" class="cls-1" d="M621.07,57.29h-5.84l-3.77,3.86-.76,4.53-6,.76-6-3.72H588l-6,3.72-6,3.77-6.21.3h0l0-1.66.46-1-.11-1.71-2-11-.62-1.66-.41-7.92.38-2.34,1.09-5.61-1-1.5-1-1-1.27-1L565,34l.59-.55.9-.49,1.49-.13,3,.32,1.87.11.87-.05,1.77-.33L581,30.83l1.25-.84,3.5-3.69.89-1,1.85-3.75.84-2.17.19-1.33-1.65-6.11-.36-.76-.62-.59-.46-.74.16-1.65L587,7.08l.76-1.16,1.71.19,3.34.27L600,0l.49,5.13,4.29,3.8.79.73,1.08,2.12.35,1.11-.1,2.69.24,1.41.35,1.17.57.95,6.08,2,2.39.4-.05,1.2-.36.76-1.41.87-.78.68-.38,1,.51,1.19.82.85.92,1.11.62,6.62.55.9.81,1.08.35.73.27,1-.08,1L618,42.56l.14,2.08.16,1.9.92,3.42,1.9,4.18.73,1.5Z" transform="translate(-360.17 2.07)"/><path id="CL-LR" class="cls-1" d="M510.21,1022.6l-7-1-6.05.76-3,4.53-4.53,5.29-7.54-3-6.82-6-5.29-3.8-3.77-6.79-6-2.25-6.05,4.53-3.77-.76-2.28-3.77-11.59-1h0l.82-4.72,2.6-3.15-.19-2.93-.41-1.33-1-1.22-.52-1.09.79-1.24.57-.66,7.27-3.55,3.37.6,1-1.52-.08-5.92,2.85-7.3.6-1.11,1.38-3.56,1.2-4-.84-1.55h0l1.3.38,1,.25,1.08.13,1.2-.13,1.19-.63,1-1.06.76-1.3,1.9-2.36,5.59-.11.87.68.41,2.85,1.14,2.09,1.14,1.27,1,.68,1.12.25,1.19.11,1.11-.06,2.91-.54,1.14,0,5.7,2,1.79.89,1.46.22,3.67-1.41,1-.54.76-.85,1.14-1.08,1-.49,1-.19,6.16.54,1,.33,1.22.84,1.06,1,2.17,1.52,2.61.06.81.13.46,1.2.25,1.24.1,1.09h0l-.29.41-.74,2.55.14,5.05,1.38,6.35,1.39,4.8-1.28,4.86-3.23,2.11-1.57,1.28-1,4.51,1,2.09,2.77,2.84.65-1.16,1.3.89.19,1.9-1.47,3.53-.54.95-.76.22-.89-.87-.82-.08Z" transform="translate(-360.17 2.07)"/><path id="CL-BI" class="cls-1" d="M537.68,854.2l-1,.24-1.53-1-1,.38-1.52.38-1.53-.51-1-1-1.14-.39-1-.38-.64.89-.76-.12-1.28-.77-.25-1-1.27-1-1-.89-1.43.38v3l-.23,1-.13,1.65-.89-.38-1.27.51h-1.4l-1.14.64-1-.77-1-.38-1.66-.63-1.4.12-1,.51-.64,1.53-.88.89-1.53.63-1.65-2.54H504.3l-1.65,2.72h-1.91l-1.9-.68-1.53,1-2.67-.64-.47.51v-1.53l.42-1.81,1.39-.69,1.66-1.81-.41-1.25-1-.42-1.12-.84h-1.67l-1.81-1.25-2.37-3.62-.83,1-2.23-.14-.69-1.38h-1l-.65,1.28-5.65-.52.52-1.66,3.46.25-.51-1.15.77-1.29-1.41-.77-.64-2.57.25-1.15-.51-1.93L478,832.52l-2.18-.38-.9-1.8-.9-.9-1.15.52-.77-2.83-.52-1.54.77-1-.25-1.93h-1.8l-.52-1.8v.47l-.18.47-1.76,4.58-1.49,5.27-.77,3.56-.56.67-.77.35h-1l-1.21-.29-.91-.88-1.4-.62-.61,9.16-.74,8.63-1,3.66-.58,1.29-.94,1.23-1,.73-1.62.72-2.13.62-1,.15-.8,0-1.68,0-3.14-1.4-1-.64-1.7-1.9-1.63,1.15-.44,1.07-1.49,7,.41.91,1,.88.91,1.13.75,1.47.19,1.79-.47,1.85-1.19,1.16L438.43,877l-.5,1.25.69,5.9,2.42,2.59,2.78,4.67,1.77,4.12.88,2.52.5,2-.69,7.23-.5,1-.77.8-.61,1.2.61,2.52.16,0,.78.37,1.21.65,3.22,2.08,10.31-9.85.63-1.21.28-.94.3-1.47-.72-1.15-1.37-.67-1.43-3.77,4.68-7,1.13-1.31.44-4.34-.52-1-2.48-.22-.86-1,3.61-4.39,5.37-.78,1.65.89,1.66,1,1.41.8,5.37,1.26,3.33-.07,2.4,2.73,1.1,2.62,2.42,3.38,1.8,1.07.83.32,1.32.21,1.4.35,1,.48,3.37,2.81.47,1.15,1.26,1.53.83.57,5.9,1,4.85-.46,1.15-.31,1.35.5,1.27,1.8v1.7l-.88,1.49-.08,1.6.17,1.14.75,2.88.49,1,1.39,1,.62-1.25.52-1.22.62-.68,3.42-1.63,2.52-1.33.66-.62.59-1.66,4-.87,8.93-.19,2.47.41,0-1.87-3.74-9.18L537.29,889l-.52-2.28-.92-2.2-.74-2.39-.08-1.82.25-1.6.7-.85,1.33-1,.57-6.27-.38-1.14-1.06-1.43-.81-1.28-1.14-3.72.52-1.63,1.35-1.57.68-2.12.64-3.52Z" transform="translate(-360.17 2.07)"/><path id="CL-NU" class="cls-1" d="M473.31,800.52l-.56.66-.76,6.74-.8,9.47-1.45,3.68v-.24l.52,1.8h1.8l.25,1.93-.77,1,.52,1.54.77,2.83,1.15-.52.9.9.9,1.8,2.18.38,2.19,2.32.51,1.93-.25,1.15.64,2.57,1.41.77-.77,1.29.51,1.15-3.46-.25-.52,1.66,5.65.52.65-1.28h1l.69,1.38,2.23.14.83-1,2.37,3.62,1.81,1.25h1.67l1.12.84,1,.42.41,1.25L496,854.09l-1.39.69-.42,1.81h0v1.52l.47-.51,2.67.64,1.52-1,1.91-2h.77l.51,2.72h3.24l1.64-.13,1.52-.61.88-.87.63-1.48,1-.49,1.39-.13,1.65.62,1,.37,1,.74,1.13-.74h1.39l1.27-.37.88.37.13-1.6.51-1v-3l1.14-.38,1,.87,1.27,1,.25,1,1.26.74.76.13.64-.87,1,.37,1.13.37,1,1,1.52.5,1.52-.37,1-.37,1.52,1,1-.22,0-.21L536,847.63l-1.46-6.06,1.89-4.83,3.16-9.07.78-2.92.7-.37-.24-.13L539.66,823l-.4-1.64L539,820l-1.33-.66-.89.13-.72.53-3,3.79-.3,1.19-.11,1-1.1,1.22-1.57-.21-3.8-2.06-.79-.77-4.12-3.32-3.21-.94-2.41-.93-1.4-.87-.94-.9-.49-1.16-1-2-2.51-.4-.92.26-1,.4-.86-.05-2.08-.48-.67-.58-.27-.87-.52-1.15L500,808l-.3,1.42.08,1.16-2.75,3-4.72-.13-1-.32L484,809.43l-5.56-4.8L478.2,803l-.6-.63-4.29-1.87Z" transform="translate(-360.17 2.07)"/></g><g id="volcanes"><polygon class="cls-3" points="139.95 1120.58 122.63 1150.58 157.27 1150.58 139.95 1120.58"/><polygon class="cls-3" points="286.83 225.07 286.83 225.07 286.83 225.07 286.83 225.07"/><polygon class="cls-3" points="316.33 232.57 299.01 262.57 333.65 262.57 316.33 232.57"/><polygon class="cls-3" points="228.33 669.04 211.01 699.04 245.65 699.04 228.33 669.04"/><polygon class="cls-3" points="200.33 766.41 183.01 796.41 217.65 796.41 200.33 766.41"/><polygon class="cls-3" points="170.33 823.41 153.01 853.41 187.65 853.41 170.33 823.41"/><polygon class="cls-3" points="170.33 855.41 153.01 885.41 187.65 885.41 170.33 855.41"/><polygon class="cls-3" points="155.59 909.54 138.27 939.54 172.91 939.54 155.59 909.54"/><polygon class="cls-3" points="141.59 947.54 124.27 977.54 158.91 977.54 141.59 947.54"/><polygon class="cls-3" points="157.59 963.54 140.27 993.54 174.91 993.54 157.59 963.54"/><polygon class="cls-3" points="147.95 1004.58 130.63 1034.58 165.27 1034.58 147.95 1004.58"/><polygon class="cls-3" points="122.95 1046.58 105.63 1076.58 140.27 1076.58 122.95 1046.58"/><polygon class="cls-4" points="123.95 1127.58 106.63 1157.58 141.27 1157.58 123.95 1127.58"/><polygon class="cls-3" points="109.95 1274.52 92.63 1304.52 127.27 1304.52 109.95 1274.52"/></g><g id="texto"><text class="cls-5" transform="translate(200.65 1315.26)"><tspan class="cls-6">V</tspan><tspan x="12.08" y="0">olcn Hudson</tspan></text><text class="cls-7" transform="translate(200.8 1176.05)"><tspan class="cls-8">V</tspan><tspan x="14.93" y="0">olcn </tspan><tspan class="cls-9" x="79.72" y="0">C</tspan><tspan x="94.8" y="0">hai</tspan><tspan class="cls-10" x="128.91" y="0">t</tspan><tspan x="137.67" y="0">n</tspan></text><text class="cls-5" transform="translate(236.65 1142.61)"><tspan class="cls-6">V</tspan><tspan x="12.08" y="0">olcn </tspan><tspan class="cls-11" x="69.16" y="0">M</tspan><tspan class="cls-12" x="87.93" y="0">ichimahuida</tspan></text><text class="cls-5" transform="translate(190.47 1099.46)"><tspan class="cls-6">V</tspan><tspan x="12.08" y="0">olcn </tspan><tspan class="cls-13" x="69.16" y="0">C</tspan><tspan x="82.34" y="0">albu</tspan><tspan class="cls-9" x="124.61" y="0">c</tspan><tspan x="134.78" y="0">o</tspan></text><text class="cls-5" transform="translate(188.04 1049.87)"><tspan class="cls-6">V</tspan><tspan x="12.08" y="0">olcn </tspan><tspan class="cls-14" x="69.16" y="0">P</tspan><tspan x="81.05" y="0">u</tspan><tspan class="cls-15" x="93.72" y="0">y</tspan><tspan x="104.33" y="0">ehu</tspan><tspan class="cls-16" x="141.29" y="0">e</tspan><tspan class="cls-17" x="153.45" y="0">-</tspan><tspan class="cls-18" x="160.84" y="0">C</tspan><tspan x="173.92" y="0">o</tspan><tspan class="cls-15" x="186.55" y="0">r</tspan><tspan x="193.84" y="0">dn </tspan><tspan class="cls-19" x="237.08" y="0">C</tspan><tspan x="250.26" y="0">aulle</tspan></text><text class="cls-5" transform="translate(215.58 1004.37)"><tspan class="cls-6">V</tspan><tspan x="12.08" y="0">olcn </tspan><tspan class="cls-20" x="69.16" y="0">M</tspan><tspan x="87.79" y="0">och</tspan><tspan class="cls-21" x="123.48" y="0">o</tspan><tspan class="cls-17" x="136.46" y="0">-</tspan><tspan x="143.84" y="0">Choshuen</tspan><tspan class="cls-9" x="241.4" y="0">c</tspan><tspan x="251.57" y="0">o </tspan></text><text class="cls-5" transform="translate(188.34 980.17)"><tspan class="cls-6">V</tspan><tspan x="12.08" y="0">olcn</tspan><tspan class="cls-22" x="64.28" y="0"> </tspan><tspan class="cls-23" x="68.33" y="0">V</tspan><tspan x="80.8" y="0">illa</tspan><tspan class="cls-24" x="108.12" y="0">rr</tspan><tspan x="123.35" y="0">ica</tspan></text><text class="cls-5" transform="translate(223.89 947.84)"><tspan class="cls-6">V</tspan><tspan x="12.08" y="0">olcn Llaima </tspan></text><text class="cls-5" transform="translate(218.37 888.61)"><tspan class="cls-6">V</tspan><tspan x="12.08" y="0">olcn </tspan><tspan class="cls-25" x="69.16" y="0">A</tspan><tspan class="cls-26" x="83.17" y="0">n</tspan><tspan x="95.84" y="0">tu</tspan><tspan class="cls-9" x="116.13" y="0">c</tspan><tspan x="126.29" y="0">o</tspan></text><text class="cls-5" transform="translate(245.9 853.26)">Ne<tspan class="cls-27" x="26.66" y="0">v</tspan><tspan x="37.63" y="0">ados de Chilln</tspan></text><text class="cls-5" transform="translate(241.7 796.69)"><tspan class="cls-6">V</tspan><tspan x="12.08" y="0">olcn </tspan><tspan class="cls-24" x="69.16" y="0">D</tspan><tspan x="84.57" y="0">escabezado G</tspan><tspan class="cls-28" x="217.46" y="0">r</tspan><tspan x="224.87" y="0">ande </tspan><tspan class="cls-17" x="278.09" y="0">-</tspan><tspan class="cls-29" x="285.47" y="0">Q</tspan><tspan x="301.39" y="0">uizapu</tspan></text><text class="cls-5" transform="translate(266.57 696.94)"><tspan class="cls-6">V</tspan><tspan x="12.08" y="0">olcn</tspan><tspan class="cls-30" x="64.28" y="0"> </tspan><tspan class="cls-31" x="68.22" y="0">T</tspan><tspan x="78.61" y="0">upung</tspan><tspan class="cls-27" x="142.67" y="0">a</tspan><tspan x="153.66" y="0">ti</tspan><tspan class="cls-9" x="166.66" y="0">t</tspan><tspan x="174.13" y="0">o</tspan></text><text class="cls-5" transform="translate(369.28 266.32)"><tspan class="cls-6">V</tspan><tspan x="12.08" y="0">olcn Lascar</tspan></text></g></svg>